<svg width="16" height="18" viewBox="0 0 16 18" fill="none" xmlns="http://www.w3.org/2000/svg">
<path d="M13.2656 9.11719C13.5 8.89062 13.8672 8.85938 14.0938 9.10156C14.3281 9.3125 14.3281 9.72656 14.1016 9.95312L8.32031 15.7344C6.39062 17.6562 3.63281 17.5078 1.89062 15.7734C0.148438 14.0312 0 11.2734 1.92969 9.34375L9.80469 1.46094C11.2656 0 13.2188 0.09375 14.4609 1.33594C15.7344 2.60938 15.7969 4.53125 14.3359 5.99219L6.64844 13.6797C5.84375 14.4844 4.6875 14.5 3.92188 13.7344C3.21875 13.0312 3.1875 11.8125 3.98438 11.0156L9.35156 5.64844C9.58594 5.41406 9.92969 5.39844 10.1562 5.61719C10.3828 5.84375 10.3672 6.1875 10.1328 6.42969L4.78125 11.7656C4.39844 12.1641 4.50781 12.6172 4.77344 12.8906C5.03906 13.1562 5.50781 13.2734 5.89062 12.875L13.5469 5.21875C14.4375 4.32031 14.5625 3.00781 13.7109 2.14062C12.8516 1.28906 11.5312 1.41406 10.6328 2.3125L2.79688 10.1406C1.30469 11.6406 1.45312 13.6328 2.74219 14.9141C4.02344 16.2109 6.03125 16.3594 7.52344 14.8594L13.2656 9.11719Z" fill="white"/>
</svg>
