<svg width="26" height="24" viewBox="0 0 26 24" fill="none" xmlns="http://www.w3.org/2000/svg">
<path d="M18.9844 11.2266C18.5977 11.2266 18.3047 10.9219 18.3047 10.5352V0.691406C18.3047 0.304688 18.6094 0 18.9844 0C19.3711 0 19.6758 0.304688 19.6758 0.691406V10.5352C19.6758 10.9219 19.3711 11.2266 18.9844 11.2266ZM17.3203 23.6602C13.793 23.6602 9.72656 21.6562 5.87109 17.8125C1.99219 13.9688 0 9.87891 0 6.46875C0 4.30078 0.597656 2.92969 1.98047 1.66406C2.07422 1.59375 2.16797 1.5 2.26172 1.41797C3.03516 0.738281 3.82031 0.410156 4.55859 0.410156C5.4375 0.421875 6.26953 0.902344 6.97266 1.91016L9.39844 5.37891C9.98438 6.22266 9.87891 7.19531 9.39844 7.99219L8.36719 9.64453C8.15625 10.0078 8.13281 10.2891 8.30859 10.5938C8.71875 11.2617 9.55078 12.2695 10.3828 13.1016C11.2148 13.9453 12.4336 14.9414 12.9727 15.3047C13.3828 15.5859 13.7109 15.5508 14.0977 15.3633L15.8555 14.4961C16.9805 13.9336 17.8125 13.9688 18.7734 14.6367L21.7734 16.6992C22.8281 17.4141 23.2969 18.2344 23.2969 19.1133C23.2969 19.8516 22.9453 20.6484 22.2656 21.4219C22.1719 21.5156 22.0898 21.6094 22.0078 21.7031C20.7539 23.0742 19.3711 23.6602 17.3203 23.6602ZM21.7734 10.0078C21.3984 10.0078 21.0938 9.70312 21.0938 9.31641V1.875C21.0938 1.5 21.3984 1.19531 21.7734 1.19531C22.1602 1.19531 22.4648 1.5 22.4648 1.875V9.31641C22.4648 9.70312 22.1602 10.0078 21.7734 10.0078ZM16.1953 9.1875C15.8086 9.1875 15.5039 8.88281 15.5039 8.49609V2.70703C15.5039 2.32031 15.8086 2.01562 16.1953 2.01562C16.582 2.01562 16.8867 2.32031 16.8867 2.70703V8.49609C16.8867 8.88281 16.582 9.1875 16.1953 9.1875ZM17.3203 21.7266C18.5859 21.7031 19.6875 21.2578 20.4609 20.3672C20.543 20.2852 20.6016 20.2148 20.6719 20.1211C20.9531 19.793 21.1055 19.4297 21.1055 19.1133C21.1055 18.7734 20.9648 18.4688 20.6133 18.2344L17.918 16.4414C17.5078 16.1719 17.1211 16.1602 16.6406 16.3945L14.7891 17.2969C13.7344 17.8125 13.043 17.6953 12.3164 17.1914C11.543 16.6758 10.1016 15.4688 9.05859 14.4258C8.09766 13.4766 7.10156 12.2227 6.42188 11.2969C5.89453 10.5703 5.84766 9.89062 6.33984 9.07031L7.47656 7.19531C7.72266 6.77344 7.73438 6.48047 7.52344 6.16406L5.44922 3.07031C5.21484 2.71875 4.92188 2.57812 4.57031 2.57812C4.25391 2.57812 3.89062 2.73047 3.5625 3.01172C3.48047 3.08203 3.39844 3.14062 3.31641 3.22266C2.42578 3.99609 1.96875 5.09766 1.95703 6.39844C1.89844 9.33984 4.08984 13.207 7.33594 16.4297C10.5703 19.6406 14.332 21.7734 17.3203 21.7266ZM24.5625 7.71094C24.1875 7.71094 23.8828 7.40625 23.8828 7.03125V4.17188C23.8828 3.79688 24.1875 3.48047 24.5625 3.48047C24.9609 3.48047 25.2539 3.78516 25.2539 4.17188V7.03125C25.2539 7.41797 24.9609 7.71094 24.5625 7.71094ZM13.3945 7.30078C13.0195 7.30078 12.7148 6.99609 12.7148 6.62109V4.59375C12.7148 4.20703 13.0195 3.90234 13.3945 3.90234C13.793 3.90234 14.0977 4.20703 14.0977 4.59375V6.62109C14.0977 6.99609 13.793 7.30078 13.3945 7.30078Z" fill="white"/>
</svg>
