<svg xmlns="http://www.w3.org/2000/svg" xml:space="preserve" width="1280" height="1024" viewBox="0 0 1280 1024"><rect width="1280" height="1024" x="-640" y="-512" fill="none" paint-order="stroke" rx="0" ry="0" style="stroke:none;stroke-width:0;stroke-dasharray:none;stroke-linecap:butt;stroke-dashoffset:0;stroke-linejoin:miter;stroke-miterlimit:4;fill:#fff;fill-opacity:0;fill-rule:nonzero;opacity:1" transform="translate(640 512)"/><g paint-order="stroke"><g transform="translate(593.657 535.922)scale(.54172)"><linearGradient id="a" x1="414.452" x2="414.452" y1="774.925" y2="283.956" gradientUnits="userSpaceOnUse"><stop offset="0%" style="stop-color:#fdbe00;stop-opacity:1"/><stop offset="1.441%" style="stop-color:#fcb403;stop-opacity:1"/><stop offset="6.551%" style="stop-color:#fa970c;stop-opacity:1"/><stop offset="11.591%" style="stop-color:#f88113;stop-opacity:1"/><stop offset="16.485%" style="stop-color:#f77417;stop-opacity:1"/><stop offset="21.063%" style="stop-color:#f77018;stop-opacity:1"/><stop offset="21.219%" style="stop-color:#f77019;stop-opacity:1"/><stop offset="25.76%" style="stop-color:#f46440;stop-opacity:1"/><stop offset="30.274%" style="stop-color:#f25a5d;stop-opacity:1"/><stop offset="34.699%" style="stop-color:#f15373;stop-opacity:1"/><stop offset="38.994%" style="stop-color:#f04f80;stop-opacity:1"/><stop offset="43.012%" style="stop-color:#f04e84;stop-opacity:1"/><stop offset="79.417%" style="stop-color:#1c83fb;stop-opacity:1"/><stop offset="100%" style="stop-color:#00f3e4;stop-opacity:1"/></linearGradient><path d="M595.357 769.03a21.1 21.1 0 0 1 2.123 16.123 21.1 21.1 0 0 1-9.9 12.903 21.13 21.13 0 0 1-10.588 2.855c-1.847 0-3.704-.244-5.536-.734a21.1 21.1 0 0 1-12.9-9.9c-2.68-4.641-3.384-9.88-2.41-14.765l-139.6-80.6-134.967 77.924h229.883l23.617 13.635H230.69l185.854-107.3 146.394 84.518a21.3 21.3 0 0 1 3.393-2.437h.002c10.15-5.859 23.166-2.363 29.023 7.778" style="stroke:none;stroke-width:1;stroke-dasharray:none;stroke-linecap:butt;stroke-dashoffset:0;stroke-linejoin:miter;stroke-miterlimit:4;fill:url(#a);fill-rule:nonzero;opacity:1" transform="translate(-414.452 -740.04)"/></g><g transform="translate(750.552 442.266)scale(.54172)"><linearGradient id="b" x1="704.078" x2="704.078" y1="774.925" y2="283.956" gradientUnits="userSpaceOnUse"><stop offset="0%" style="stop-color:#fdbe00;stop-opacity:1"/><stop offset="1.441%" style="stop-color:#fcb403;stop-opacity:1"/><stop offset="6.551%" style="stop-color:#fa970c;stop-opacity:1"/><stop offset="11.591%" style="stop-color:#f88113;stop-opacity:1"/><stop offset="16.485%" style="stop-color:#f77417;stop-opacity:1"/><stop offset="21.063%" style="stop-color:#f77018;stop-opacity:1"/><stop offset="21.219%" style="stop-color:#f77019;stop-opacity:1"/><stop offset="25.76%" style="stop-color:#f46440;stop-opacity:1"/><stop offset="30.274%" style="stop-color:#f25a5d;stop-opacity:1"/><stop offset="34.699%" style="stop-color:#f15373;stop-opacity:1"/><stop offset="38.994%" style="stop-color:#f04f80;stop-opacity:1"/><stop offset="43.012%" style="stop-color:#f04e84;stop-opacity:1"/><stop offset="79.417%" style="stop-color:#1c83fb;stop-opacity:1"/><stop offset="100%" style="stop-color:#00f3e4;stop-opacity:1"/></linearGradient><path d="M606.78 418.918c5.859-10.143 18.874-13.635 29.026-7.777a21.1 21.1 0 0 1 9.899 12.901 21.1 21.1 0 0 1-2.123 16.123c-2.604 4.513-6.69 7.824-11.583 9.476v161.191l134.967 77.922L652.024 489.67V462.4l152.195 263.606-185.855-107.303V449.625c-1.304-.445-2.586-.977-3.806-1.682-10.146-5.857-13.635-18.88-7.778-29.025" style="stroke:none;stroke-width:1;stroke-dasharray:none;stroke-linecap:butt;stroke-dashoffset:0;stroke-linejoin:miter;stroke-miterlimit:4;fill:url(#b);fill-rule:nonzero;opacity:1" transform="translate(-704.078 -567.153)"/></g><g transform="translate(570.04 363.535)scale(.54172)"><linearGradient id="c" x1="370.853" x2="370.853" y1="774.925" y2="283.956" gradientUnits="userSpaceOnUse"><stop offset="0%" style="stop-color:#fdbe00;stop-opacity:1"/><stop offset="1.441%" style="stop-color:#fcb403;stop-opacity:1"/><stop offset="6.551%" style="stop-color:#fa970c;stop-opacity:1"/><stop offset="11.591%" style="stop-color:#f88113;stop-opacity:1"/><stop offset="16.485%" style="stop-color:#f77417;stop-opacity:1"/><stop offset="21.063%" style="stop-color:#f77018;stop-opacity:1"/><stop offset="21.219%" style="stop-color:#f77019;stop-opacity:1"/><stop offset="25.76%" style="stop-color:#f46440;stop-opacity:1"/><stop offset="30.274%" style="stop-color:#f25a5d;stop-opacity:1"/><stop offset="34.699%" style="stop-color:#f15373;stop-opacity:1"/><stop offset="38.994%" style="stop-color:#f04f80;stop-opacity:1"/><stop offset="43.012%" style="stop-color:#f04e84;stop-opacity:1"/><stop offset="79.417%" style="stop-color:#1c83fb;stop-opacity:1"/><stop offset="100%" style="stop-color:#00f3e4;stop-opacity:1"/></linearGradient><path d="M276.616 562.834c0-11.716 9.532-21.248 21.247-21.248 5.36 0 10.249 2.011 13.991 5.298l139.602-80.6V310.437L336.514 509.522l-23.618 13.636L465.091 259.55v214.604l-146.394 84.523c.268 1.345.414 2.733.414 4.156 0 11.715-9.532 21.247-21.248 21.247-11.715 0-21.247-9.532-21.247-21.247" style="stroke:none;stroke-width:1;stroke-dasharray:none;stroke-linecap:butt;stroke-dashoffset:0;stroke-linejoin:miter;stroke-miterlimit:4;fill:url(#c);fill-rule:nonzero;opacity:1" transform="translate(-370.853 -421.816)"/></g><g transform="translate(640 401.977)scale(.54172)"><linearGradient id="d" x1="500" x2="500" y1="774.925" y2="283.956" gradientUnits="userSpaceOnUse"><stop offset="0%" style="stop-color:#fdbe00;stop-opacity:1"/><stop offset="1.441%" style="stop-color:#fcb403;stop-opacity:1"/><stop offset="6.551%" style="stop-color:#fa970c;stop-opacity:1"/><stop offset="11.591%" style="stop-color:#f88113;stop-opacity:1"/><stop offset="16.485%" style="stop-color:#f77417;stop-opacity:1"/><stop offset="21.063%" style="stop-color:#f77018;stop-opacity:1"/><stop offset="21.219%" style="stop-color:#f77019;stop-opacity:1"/><stop offset="25.76%" style="stop-color:#f46440;stop-opacity:1"/><stop offset="30.274%" style="stop-color:#f25a5d;stop-opacity:1"/><stop offset="34.699%" style="stop-color:#f15373;stop-opacity:1"/><stop offset="38.994%" style="stop-color:#f04f80;stop-opacity:1"/><stop offset="43.012%" style="stop-color:#f04e84;stop-opacity:1"/><stop offset="79.417%" style="stop-color:#1c83fb;stop-opacity:1"/><stop offset="100%" style="stop-color:#00f3e4;stop-opacity:1"/></linearGradient><path d="M825.49 786.47h13.635l-6.818-11.81-283.763-163.829V310.438l28.092 48.655v214.58c-4.717 1.597-8.902 4.825-11.583 9.467-5.856 10.146-2.368 23.167 7.777 29.025a21.1 21.1 0 0 0 10.587 2.842c7.35 0 14.508-3.812 18.438-10.62a21.1 21.1 0 0 0 2.123-16.123 21.1 21.1 0 0 0-9.9-12.9 21 21 0 0 0-3.807-1.72V355.44l-55.362-95.89v254.915l-28.091 16.219V210.898L500 199.089l-6.817 11.808v327.66L233.035 688.754l28.091-48.655 185.83-107.29c3.742 3.287 8.63 5.298 13.99 5.298 11.716 0 21.248-9.532 21.248-21.247s-9.532-21.248-21.248-21.248c-11.715 0-21.245 9.532-21.245 21.248 0 1.422.146 2.81.413 4.154l-188.97 109.103-55.362 95.89 220.763-127.458 28.093 16.219-276.945 159.894-6.818 11.808h13.636l283.762-163.83L718.42 772.836h-56.183l-185.83-107.289c.976-4.884.273-10.123-2.408-14.765a21.1 21.1 0 0 0-12.9-9.9 21.1 21.1 0 0 0-16.124 2.122 21.1 21.1 0 0 0-9.899 12.902 21.1 21.1 0 0 0 2.121 16.123c3.932 6.808 11.088 10.619 18.438 10.619a21.13 21.13 0 0 0 13.98-5.278l188.97 109.101h110.722L548.544 659.014v-32.438zM534.91 651.141l-104.73-60.465 104.73-60.465z" style="stroke:none;stroke-width:1;stroke-dasharray:none;stroke-linecap:butt;stroke-dashoffset:0;stroke-linejoin:miter;stroke-miterlimit:4;fill:url(#d);fill-rule:nonzero;opacity:1" transform="translate(-500 -492.78)"/></g></g><path d="M2.12 0h28.09v-6.36H8.48V-16.7h16.43v-6.35H8.48v-7.69h21.73v-6.36H2.12Zm64.24-5.14L61.9-9.7c-2.38 2.39-5.14 3.61-8.69 3.61-7.37 0-12.4-5.15-12.4-12.51 0-7.26 5.03-12.4 12.4-12.4 3.55 0 6.31 1.21 8.69 3.6l4.46-4.56c-3.34-3.28-8.01-5.41-13.15-5.41-10.44 0-18.76 8.43-18.76 18.77C34.45-8.16 42.77.27 53.21.27c5.14 0 9.81-2.12 13.15-5.41M80.14 0v-15.37h18.55V0h6.36v-37.1h-6.36v15.37H80.14V-37.1h-6.36V0Zm51.09-6.09c-7.37 0-12.4-5.09-12.4-12.51 0-7.37 5.03-12.4 12.4-12.4 7.36 0 12.4 5.03 12.4 12.4 0 7.42-5.04 12.51-12.4 12.51M112.47-18.6c0 10.49 8.32 18.87 18.76 18.87s18.76-8.38 18.76-18.87c0-10.44-8.32-18.77-18.76-18.77s-18.76 8.33-18.76 18.77m76.85 13.46-4.46-4.56c-2.38 2.39-5.14 3.61-8.69 3.61-7.36 0-12.4-5.15-12.4-12.51 0-7.26 5.04-12.4 12.4-12.4 3.55 0 6.31 1.21 8.69 3.6l4.46-4.56c-3.34-3.28-8.01-5.41-13.15-5.41-10.44 0-18.76 8.43-18.76 18.77 0 10.44 8.32 18.87 18.76 18.87 5.14 0 9.81-2.12 13.15-5.41m24.06-.95c-7.37 0-12.4-5.09-12.4-12.51 0-7.37 5.03-12.4 12.4-12.4s12.4 5.03 12.4 12.4c0 7.42-5.03 12.51-12.4 12.51M194.62-18.6c0 10.49 8.32 18.87 18.76 18.87s18.76-8.38 18.76-18.87c0-10.44-8.32-18.77-18.76-18.77s-18.76 8.33-18.76 18.77M239.56 0h13.83c14.63 0 20.41-5.19 20.41-18.6 0-12.72-5.99-18.5-20.41-18.5h-13.83Zm6.36-6.36v-24.38h7.47c11.4 0 14.05 2.54 14.05 12.14 0 10.12-2.33 12.24-14.05 12.24ZM281.22 0h28.09v-6.36h-21.73V-16.7h16.43v-6.35h-16.43v-7.69h21.73v-6.36h-28.09Zm35.51 0h6.36v-6.36h-6.36Zm20.67 0 2.38-5.83h18.55L360.72 0h6.89L352.5-37.1h-6.89L330.51 0Zm4.98-12.19 6.68-16.43 6.68 16.43ZM381.39 0v-14.04h15.85c6.3 0 11.55-5.2 11.55-11.51 0-6.36-5.25-11.55-11.55-11.55h-22.21V0Zm0-20.41v-10.33h15.85c3.23 0 5.19 1.91 5.19 5.19 0 3.24-1.96 5.14-5.19 5.14ZM422.57 0v-14.04h15.85c6.3 0 11.55-5.2 11.55-11.51 0-6.36-5.25-11.55-11.55-11.55h-22.21V0Zm0-20.41v-10.33h15.85c3.23 0 5.19 1.91 5.19 5.19 0 3.24-1.96 5.14-5.19 5.14Z" paint-order="stroke" style="stroke:none;stroke-width:0;stroke-dasharray:none;stroke-linecap:butt;stroke-dashoffset:0;stroke-linejoin:miter;stroke-miterlimit:4;fill:#1c83fb;fill-rule:nonzero;opacity:1" transform="translate(205.733 697.233)scale(1.92115)"/><path d="M1.08 0h11.31c3.22 0 5.89-2.65 5.89-5.89 0-1.75-.78-3.32-2.03-4.4.79-.92 1.27-2.13 1.27-3.43 0-2.86-2.32-5.18-5.21-5.18H1.08Zm3.24-3.24v-5.27h8.07c1.65 0 2.65.98 2.65 2.62 0 1.68-1 2.65-2.65 2.65Zm0-8.5v-3.92h7.99c1.32 0 1.97.65 1.97 1.94 0 1.3-.65 1.98-1.97 1.98ZM33.94 0h14.31v-3.24H37.18v-5.27h8.37v-3.23h-8.37v-3.92h11.07v-3.24H33.94Zm40.47-14.23h3.24c0-3.08-2.27-4.81-6.51-4.81-3.88 0-6.45 1.52-6.45 4.81 0 2.97 1.86 4.43 6.1 5.35 4.35.94 5.16 1.21 5.16 2.89 0 2.34-.94 2.89-4.81 2.89-2.78 0-3.83-.44-4.42-1.49l-2.81 1.57C65.12-.86 67.55.14 71.14.14c5 0 8.05-1.73 8.05-6.13 0-4.03-3.05-5.05-7.69-6.08-3.16-.67-3.57-.92-3.57-2.16 0-1.3.46-1.56 3.21-1.56 2.84 0 3.27.29 3.27 1.56M102.82 0v-15.66h6.61v-3.24H92.96v3.24h6.62V0Zm44.68 0 1.22-2.97h9.45L159.38 0h3.51l-7.69-18.9h-3.51L143.99 0Zm2.54-6.21 3.4-8.37 3.4 8.37ZM181.79 0v-7.16h8.07c3.22 0 5.89-2.64 5.89-5.85 0-3.24-2.67-5.89-5.89-5.89h-11.31V0Zm0-10.39v-5.27h8.07c1.65 0 2.65.97 2.65 2.65 0 1.64-1 2.62-2.65 2.62ZM214.65 0v-7.16h8.07c3.22 0 5.89-2.64 5.89-5.85 0-3.24-2.67-5.89-5.89-5.89h-11.31V0Zm0-10.39v-5.27h8.07c1.65 0 2.65.97 2.65 2.65 0 1.64-1 2.62-2.65 2.62Zm40.12-3.84h3.24c0-3.08-2.27-4.81-6.51-4.81-3.88 0-6.45 1.52-6.45 4.81 0 2.97 1.86 4.43 6.1 5.35 4.35.94 5.16 1.21 5.16 2.89 0 2.34-.94 2.89-4.81 2.89-2.78 0-3.83-.44-4.42-1.49l-2.81 1.57c1.21 2.16 3.64 3.16 7.23 3.16 5 0 8.05-1.73 8.05-6.13 0-4.03-3.05-5.05-7.69-6.08-3.16-.67-3.57-.92-3.57-2.16 0-1.3.46-1.56 3.21-1.56 2.84 0 3.27.29 3.27 1.56M297.35 0v-18.9h-3.24V0Zm26.16-14.23h3.24c0-3.08-2.26-4.81-6.5-4.81-3.89 0-6.46 1.52-6.46 4.81 0 2.97 1.87 4.43 6.11 5.35 4.34.94 5.15 1.21 5.15 2.89 0 2.34-.94 2.89-4.8 2.89-2.78 0-3.84-.44-4.43-1.49l-2.81 1.57c1.22 2.16 3.65 3.16 7.24 3.16 4.99 0 8.04-1.73 8.04-6.13 0-4.03-3.05-5.05-7.69-6.08-3.16-.67-3.57-.92-3.57-2.16 0-1.3.46-1.56 3.22-1.56 2.83 0 3.26.29 3.26 1.56M366.09 0v-7.83h9.45V0h3.24v-18.9h-3.24v7.83h-9.45v-7.83h-3.24V0Zm28.35 0h14.31v-3.24h-11.07v-5.27h8.37v-3.23h-8.37v-3.92h11.07v-3.24h-14.31Zm33.21 0v-7.16h6.73L438.72 0h3.78l-4.59-7.59c2.16-.86 3.7-2.97 3.7-5.42 0-3.24-2.67-5.89-5.88-5.89h-11.32V0Zm0-10.39v-5.27h8.08c1.64 0 2.64.97 2.64 2.65 0 1.64-1 2.62-2.64 2.62ZM458.16 0h14.31v-3.24H461.4v-5.27h8.37v-3.23h-8.37v-3.92h11.07v-3.24h-14.31Z" paint-order="stroke" style="stroke:none;stroke-width:0;stroke-dasharray:none;stroke-linecap:butt;stroke-dashoffset:0;stroke-linejoin:miter;stroke-miterlimit:4;fill:#00f3e4;fill-rule:nonzero;opacity:1" transform="translate(185.158 768.378)scale(1.92115)"/></svg>