<svg width="1024" height="1024" viewBox="0 0 1024 1024" fill="none" xmlns="http://www.w3.org/2000/svg">
<rect width="1024" height="1024" rx="120" fill="#8DAAED"/>
<g clip-path="url(#clip0_54709_12505)" filter="url(#filter0_d_54709_12505)">
<g filter="url(#filter1_d_54709_12505)">
<path d="M575.606 159.977H515.124C504.079 159.977 495.124 151.023 495.124 139.977V116.691C495.124 105.646 486.17 96.6914 475.124 96.6914H248.935C237.89 96.6914 228.935 105.646 228.935 116.691V139.977C228.935 151.023 219.981 159.977 208.935 159.977H148.453C117.619 159.977 92.6064 187.47 92.6064 221.377V410.372C92.6064 444.279 117.619 471.771 148.453 471.771H198.531C209.577 471.771 218.531 462.817 218.531 451.771V368.109C218.531 365.222 220.873 362.88 223.76 362.88C226.648 362.88 228.989 365.222 228.989 368.109V582.224C228.989 593.27 237.944 602.224 248.989 602.224H475.178C486.224 602.224 495.178 593.27 495.178 582.224V368.109C495.178 365.222 497.519 362.88 500.407 362.88C503.295 362.88 505.636 365.222 505.636 368.109V451.771C505.636 462.817 514.59 471.771 525.636 471.771H575.66C606.495 471.771 631.507 444.279 631.507 410.372V221.377C631.453 187.47 606.441 159.977 575.606 159.977ZM475.718 562.764C475.718 573.81 466.764 582.764 455.718 582.764H268.342C257.296 582.764 248.342 573.81 248.342 562.764V382.827C248.342 371.781 257.296 362.827 268.342 362.827H455.718C466.764 362.827 475.718 371.781 475.718 382.827V562.764ZM475.718 139.977C475.718 151.023 466.764 159.977 455.718 159.977H268.342C257.296 159.977 248.342 151.023 248.342 139.977V136.098C248.342 125.052 257.296 116.098 268.342 116.098H455.718C466.764 116.098 475.718 125.052 475.718 136.098V139.977ZM578.733 236.523C578.733 247.569 569.779 256.523 558.733 256.523H553.074C542.029 256.523 533.074 247.569 533.074 236.523V226.283C533.074 215.237 542.029 206.283 553.074 206.283H558.733C569.779 206.283 578.733 215.237 578.733 226.283V236.523ZM432.396 504.491C426.739 495.823 415.403 492.904 406.262 497.761L388.326 507.293C378.34 512.6 365.943 508.578 360.974 498.419L342.834 461.33C335.594 446.527 314.563 446.34 307.061 461.011L274.762 524.171C267.956 537.479 277.622 553.277 292.569 553.277H427.301C443.186 553.277 452.731 535.649 444.049 522.346L432.396 504.491ZM438.415 432.258C451.245 432.258 461.649 442.662 461.649 455.491C461.649 468.321 451.245 478.725 438.415 478.725C425.585 478.725 415.181 468.321 415.181 455.491C415.181 442.662 425.585 432.258 438.415 432.258Z" fill="#FFFACD"/>
</g>
</g>
<path d="M534.698 497.769C535.857 494.081 532.616 490.875 528.75 490.875H519.875C516.009 490.875 512.875 494.009 512.875 497.875V506.75C512.875 510.616 516.081 513.857 519.769 512.698C526.87 510.465 532.465 504.87 534.698 497.769ZM596.462 497.873C596.78 494.02 593.616 490.875 589.75 490.875H588.5C584.634 490.875 581.538 494.018 581.148 497.864C577.878 530.18 552.18 555.878 519.864 559.148C516.018 559.538 512.875 562.634 512.875 566.5V567.75C512.875 571.616 516.02 574.78 519.873 574.462C560.642 571.096 593.098 538.585 596.462 497.873ZM565.799 497.859C566.298 494.026 563.116 490.875 559.25 490.875H558C554.134 490.875 551.067 494.037 550.365 497.839C547.506 513.304 535.304 525.506 519.839 528.365C516.037 529.067 512.875 532.134 512.875 536V537.25C512.875 541.116 516.026 544.298 519.859 543.799C543.774 540.682 562.682 521.774 565.799 497.859ZM566.538 621.127C566.219 624.98 569.384 628.125 573.25 628.125H574.5C578.366 628.125 581.462 624.982 581.852 621.136C585.122 588.82 610.82 563.122 643.136 559.852C646.982 559.462 650.125 556.366 650.125 552.5V551.25C650.125 547.384 646.98 544.219 643.127 544.538C602.419 547.909 569.909 580.419 566.538 621.127ZM628.302 621.231C627.143 624.919 630.384 628.125 634.25 628.125H643.125C646.991 628.125 650.125 624.991 650.125 621.125V612.25C650.125 608.384 646.919 605.143 643.231 606.302C636.13 608.535 630.535 614.13 628.302 621.231ZM597.201 621.141C596.702 624.974 599.884 628.125 603.75 628.125H605C608.866 628.125 611.933 624.963 612.635 621.161C615.494 605.696 627.696 593.494 643.161 590.635C646.963 589.933 650.125 586.866 650.125 583V581.75C650.125 577.884 646.974 574.702 643.141 575.201C619.226 578.318 600.318 597.226 597.201 621.141Z" fill="#FFFACD"/>
<g clip-path="url(#clip1_54709_12505)" filter="url(#filter2_d_54709_12505)">
<path d="M879 555.188C884.304 555.188 889.391 557.42 893.142 561.393C896.893 565.367 899 570.756 899 576.375V830.625C899 836.244 896.893 841.633 893.142 845.607C889.391 849.58 884.304 851.812 879 851.812H719C713.696 851.812 708.609 849.58 704.858 845.607C701.107 841.633 699 836.244 699 830.625V576.375C699 570.756 701.107 565.367 704.858 561.393C708.609 557.42 713.696 555.188 719 555.188H879ZM719 534C708.391 534 698.217 538.464 690.716 546.411C683.214 554.358 679 565.136 679 576.375V830.625C679 841.864 683.214 852.642 690.716 860.589C698.217 868.535 708.391 873 719 873H879C889.609 873 899.783 868.535 907.284 860.589C914.786 852.642 919 841.864 919 830.625V576.375C919 565.136 914.786 554.358 907.284 546.411C899.783 538.464 889.609 534 879 534H719Z" fill="#FFFACD"/>
<path d="M799 830.625C804.304 830.625 809.391 828.393 813.142 824.419C816.893 820.446 819 815.057 819 809.438C819 803.818 816.893 798.429 813.142 794.456C809.391 790.482 804.304 788.25 799 788.25C793.696 788.25 788.609 790.482 784.858 794.456C781.107 798.429 779 803.818 779 809.438C779 815.057 781.107 820.446 784.858 824.419C788.609 828.393 793.696 830.625 799 830.625Z" fill="#FFFACD"/>
<g filter="url(#filter3_d_54709_12505)">
<g clip-path="url(#clip2_54709_12505)">
<g filter="url(#filter4_d_54709_12505)">
<path d="M925.936 498.601H896.808C886.461 498.601 878.073 490.213 878.073 479.866C878.073 469.52 869.686 461.132 859.339 461.132H738.506C728.159 461.132 719.772 469.52 719.772 479.866C719.772 490.213 711.384 498.601 701.037 498.601H671.909C653.572 498.601 638.697 514.878 638.697 534.953V646.849C638.697 666.924 653.572 683.201 671.909 683.201H693.584C704.63 683.201 713.584 674.246 713.584 663.201V621.841C713.584 620.123 714.977 618.731 716.694 618.731C718.411 618.731 719.804 620.123 719.804 621.841V740.436C719.804 751.482 728.758 760.436 739.804 760.436H858.106C869.151 760.436 878.106 751.482 878.106 740.436V621.841C878.106 620.123 879.498 618.731 881.215 618.731C882.933 618.731 884.325 620.123 884.325 621.841V663.201C884.325 674.246 893.279 683.201 904.325 683.201H925.968C944.305 683.201 959.18 666.924 959.18 646.849V534.953C959.148 514.878 944.273 498.601 925.936 498.601ZM866.533 728.915C866.533 739.961 857.578 748.915 846.533 748.915H751.312C740.267 748.915 731.312 739.961 731.312 728.915V638.699C731.312 627.654 740.267 618.699 751.312 618.699H846.533C857.578 618.699 866.533 627.654 866.533 638.699V728.915ZM866.533 485.611C866.533 492.785 860.717 498.601 853.543 498.601H744.302C737.128 498.601 731.312 492.785 731.312 485.611C731.312 478.437 737.128 472.621 744.302 472.621H853.543C860.717 472.621 866.533 478.437 866.533 485.611ZM927.795 542.185C927.795 549.683 921.717 555.762 914.219 555.762C906.721 555.762 900.642 549.683 900.642 542.185V539.593C900.642 532.095 906.721 526.016 914.219 526.016C921.717 526.016 927.795 532.095 927.795 539.593V542.185ZM843.029 706.02C838.38 698.929 829.099 696.54 821.605 700.505L820.225 701.235C811.179 706.02 799.968 702.383 795.455 693.197L794.612 691.481C787.36 676.721 766.385 676.534 758.871 691.162L753.14 702.319C746.303 715.628 755.968 731.457 770.93 731.457H829.288C842.353 731.457 850.191 716.946 843.029 706.02ZM844.349 659.807C851.978 659.807 858.166 665.966 858.166 673.562C858.166 681.158 851.978 687.318 844.349 687.318C836.719 687.318 830.532 681.158 830.532 673.562C830.532 665.966 836.719 659.807 844.349 659.807Z" fill="#FFFACD"/>
</g>
</g>
</g>
</g>
<defs>
<filter id="filter0_d_54709_12505" x="74.2" y="57.2" width="577.6" height="577.6" filterUnits="userSpaceOnUse" color-interpolation-filters="sRGB">
<feFlood flood-opacity="0" result="BackgroundImageFix"/>
<feColorMatrix in="SourceAlpha" type="matrix" values="0 0 0 0 0 0 0 0 0 0 0 0 0 0 0 0 0 0 127 0" result="hardAlpha"/>
<feOffset dy="7"/>
<feGaussianBlur stdDeviation="6.4"/>
<feComposite in2="hardAlpha" operator="out"/>
<feColorMatrix type="matrix" values="0 0 0 0 0 0 0 0 0 0 0 0 0 0 0 0 0 0 0.25 0"/>
<feBlend mode="normal" in2="BackgroundImageFix" result="effect1_dropShadow_54709_12505"/>
<feBlend mode="normal" in="SourceGraphic" in2="effect1_dropShadow_54709_12505" result="shape"/>
</filter>
<filter id="filter1_d_54709_12505" x="77.6064" y="85.6914" width="568.9" height="535.533" filterUnits="userSpaceOnUse" color-interpolation-filters="sRGB">
<feFlood flood-opacity="0" result="BackgroundImageFix"/>
<feColorMatrix in="SourceAlpha" type="matrix" values="0 0 0 0 0 0 0 0 0 0 0 0 0 0 0 0 0 0 127 0" result="hardAlpha"/>
<feOffset dy="4"/>
<feGaussianBlur stdDeviation="7.5"/>
<feComposite in2="hardAlpha" operator="out"/>
<feColorMatrix type="matrix" values="0 0 0 0 0 0 0 0 0 0 0 0 0 0 0 0 0 0 0.25 0"/>
<feBlend mode="normal" in2="BackgroundImageFix" result="effect1_dropShadow_54709_12505"/>
<feBlend mode="normal" in="SourceGraphic" in2="effect1_dropShadow_54709_12505" result="shape"/>
</filter>
<filter id="filter2_d_54709_12505" x="626.2" y="528.2" width="345.6" height="364.6" filterUnits="userSpaceOnUse" color-interpolation-filters="sRGB">
<feFlood flood-opacity="0" result="BackgroundImageFix"/>
<feColorMatrix in="SourceAlpha" type="matrix" values="0 0 0 0 0 0 0 0 0 0 0 0 0 0 0 0 0 0 127 0" result="hardAlpha"/>
<feOffset dy="7"/>
<feGaussianBlur stdDeviation="6.4"/>
<feComposite in2="hardAlpha" operator="out"/>
<feColorMatrix type="matrix" values="0 0 0 0 0 0 0 0 0 0 0 0 0 0 0 0 0 0 0.25 0"/>
<feBlend mode="normal" in2="BackgroundImageFix" result="effect1_dropShadow_54709_12505"/>
<feBlend mode="normal" in="SourceGraphic" in2="effect1_dropShadow_54709_12505" result="shape"/>
</filter>
<filter id="filter3_d_54709_12505" x="708.2" y="598.2" width="182.6" height="189.6" filterUnits="userSpaceOnUse" color-interpolation-filters="sRGB">
<feFlood flood-opacity="0" result="BackgroundImageFix"/>
<feColorMatrix in="SourceAlpha" type="matrix" values="0 0 0 0 0 0 0 0 0 0 0 0 0 0 0 0 0 0 127 0" result="hardAlpha"/>
<feOffset dy="7"/>
<feGaussianBlur stdDeviation="6.4"/>
<feComposite in2="hardAlpha" operator="out"/>
<feColorMatrix type="matrix" values="0 0 0 0 0 0 0 0 0 0 0 0 0 0 0 0 0 0 0.25 0"/>
<feBlend mode="normal" in2="BackgroundImageFix" result="effect1_dropShadow_54709_12505"/>
<feBlend mode="normal" in="SourceGraphic" in2="effect1_dropShadow_54709_12505" result="shape"/>
</filter>
<filter id="filter4_d_54709_12505" x="623.697" y="450.132" width="350.482" height="329.305" filterUnits="userSpaceOnUse" color-interpolation-filters="sRGB">
<feFlood flood-opacity="0" result="BackgroundImageFix"/>
<feColorMatrix in="SourceAlpha" type="matrix" values="0 0 0 0 0 0 0 0 0 0 0 0 0 0 0 0 0 0 127 0" result="hardAlpha"/>
<feOffset dy="4"/>
<feGaussianBlur stdDeviation="7.5"/>
<feComposite in2="hardAlpha" operator="out"/>
<feColorMatrix type="matrix" values="0 0 0 0 0 0 0 0 0 0 0 0 0 0 0 0 0 0 0.25 0"/>
<feBlend mode="normal" in2="BackgroundImageFix" result="effect1_dropShadow_54709_12505"/>
<feBlend mode="normal" in="SourceGraphic" in2="effect1_dropShadow_54709_12505" result="shape"/>
</filter>
<clipPath id="clip0_54709_12505">
<rect width="552" height="552" fill="white" transform="translate(87 63)"/>
</clipPath>
<clipPath id="clip1_54709_12505">
<rect width="320" height="339" fill="white" transform="translate(639 534)"/>
</clipPath>
<clipPath id="clip2_54709_12505">
<rect x="721" y="604" width="157" height="164" rx="17" fill="white"/>
</clipPath>
</defs>
</svg>
