<svg width="1024" height="1024" viewBox="0 0 1024 1024" fill="none" xmlns="http://www.w3.org/2000/svg">
<rect width="1024" height="1024" rx="120" fill="black"/>
<path d="M733.606 653.769H547.156C536.303 653.769 527.302 644.769 527.302 633.915C527.302 623.062 536.303 614.061 547.156 614.061H733.606C801.904 614.061 846.113 569.853 846.113 501.554V289.777C846.113 221.479 801.904 177.271 733.606 177.271H468.885C400.587 177.271 356.378 221.479 356.378 289.777V424.427C356.378 435.281 347.378 444.282 336.524 444.282C325.67 444.282 316.67 435.281 316.67 424.427V289.777C316.67 198.713 377.821 137.562 468.885 137.562H733.606C824.67 137.562 885.821 198.713 885.821 289.777V501.554C885.821 592.619 824.67 653.769 733.606 653.769Z" fill="white"/>
<path d="M520 609.028C513.76 609.028 508.363 604.306 507.52 598.066C498.244 525.882 445.624 473.094 373.272 463.818C366.357 462.975 361.466 456.565 362.309 449.651C363.153 442.736 369.561 437.845 376.476 438.688C460.465 449.482 521.855 510.703 532.48 594.692C533.324 601.607 528.433 608.016 521.518 608.859C521.181 609.028 520.506 609.028 520 609.028Z" fill="white"/>
<path d="M463.328 627.065C457.088 627.065 451.691 622.342 450.848 616.102C444.27 564.663 406.66 527.053 355.221 520.476C348.306 519.632 343.415 513.224 344.259 506.309C345.102 499.394 351.511 494.503 358.426 495.346C421.671 503.442 467.713 549.653 475.808 612.729C476.651 619.644 471.761 626.053 464.846 626.896C464.34 627.064 463.834 627.065 463.328 627.065Z" fill="white"/>
<path d="M399.245 637.866C393.005 637.866 387.608 633.144 386.765 626.903C383.898 604.135 367.201 587.438 344.433 584.571C337.518 583.728 332.627 577.319 333.471 570.405C334.314 563.49 340.723 558.599 347.638 559.442C381.706 563.827 407.509 589.631 411.894 623.699C412.738 630.614 407.847 637.023 400.932 637.866C400.426 637.866 399.92 637.866 399.245 637.866Z" fill="white"/>
<path d="M358.989 793.251C358.989 850.857 358.989 879.661 344.111 897.556C329.233 915.452 305.286 915.452 257.394 915.452C209.501 915.452 185.555 915.452 170.676 897.556C155.798 879.661 155.798 850.857 155.798 793.251V732.15C155.798 674.544 155.798 645.741 170.676 627.845C185.555 609.949 209.501 609.949 257.394 609.949C305.286 609.949 329.233 609.949 344.111 627.845C358.989 645.741 358.989 735.645 358.989 793.251Z" fill="black" stroke="white" stroke-width="24.2005" stroke-linecap="round"/>
<path d="M295.408 644.211H219.211H295.408Z" fill="black"/>
<path d="M295.408 644.211H219.211" stroke="white" stroke-width="17.1711" stroke-linecap="round"/>
<path d="M256.964 891.911C266.922 891.911 274.994 884.031 274.994 874.31C274.994 864.59 266.922 856.71 256.964 856.71C247.007 856.71 238.935 864.59 238.935 874.31C238.935 884.031 247.007 891.911 256.964 891.911Z" fill="black" stroke="white" stroke-width="12.8783"/>
<path d="M269.52 806.151H245.266C223.316 806.151 213.938 796.773 213.938 774.823V750.569C213.938 728.619 223.316 719.24 245.266 719.24H269.52C291.47 719.24 300.848 728.619 300.848 750.569V774.823C300.848 796.773 291.47 806.151 269.52 806.151ZM245.266 725.304C226.631 725.304 220.001 731.933 220.001 750.569V774.823C220.001 793.458 226.631 800.088 245.266 800.088H269.52C288.155 800.088 294.785 793.458 294.785 774.823V750.569C294.785 731.933 288.155 725.304 269.52 725.304H245.266Z" fill="white"/>
<path d="M295.715 745.956H219.072C217.414 745.956 216.04 744.582 216.04 742.924C216.04 741.267 217.374 739.893 219.072 739.893H295.715C297.372 739.893 298.747 741.267 298.747 742.924C298.747 744.582 297.413 745.956 295.715 745.956Z" fill="white"/>
<path d="M243.326 745.389C241.668 745.389 240.294 744.015 240.294 742.357V722.711C240.294 721.054 241.668 719.68 243.326 719.68C244.983 719.68 246.357 721.054 246.357 722.711V742.357C246.357 744.015 244.983 745.389 243.326 745.389Z" fill="white"/>
<path d="M271.46 743.57C269.803 743.57 268.429 742.196 268.429 740.538V722.711C268.429 721.054 269.803 719.68 271.46 719.68C273.118 719.68 274.492 721.054 274.492 722.711V740.538C274.492 742.236 273.158 743.57 271.46 743.57Z" fill="white"/>
<path d="M253.714 787.44C252.259 787.44 250.885 787.076 249.631 786.389C246.883 784.772 245.266 781.538 245.266 777.455V767.754C245.266 763.671 246.883 760.397 249.672 758.78C252.461 757.163 256.099 757.405 259.616 759.467L268.024 764.318C271.541 766.339 273.603 769.371 273.603 772.604C273.603 775.838 271.541 778.87 267.984 780.891L259.576 785.742C257.635 786.874 255.614 787.44 253.714 787.44ZM253.755 763.792C253.35 763.792 252.987 763.873 252.704 764.035C251.855 764.52 251.329 765.894 251.329 767.754V777.455C251.329 779.274 251.855 780.649 252.704 781.174C253.552 781.659 255.008 781.417 256.584 780.487L264.992 775.636C266.569 774.706 267.539 773.575 267.539 772.604C267.539 771.634 266.609 770.502 264.992 769.573L256.584 764.722C255.533 764.115 254.523 763.792 253.755 763.792Z" fill="white"/>
<path d="M632.475 505.607H570.873C515.124 505.607 491.305 481.788 491.305 426.039V364.438C491.305 308.688 515.124 284.869 570.873 284.869H632.475C688.224 284.869 712.043 308.688 712.043 364.438V426.039C712.043 481.788 688.224 505.607 632.475 505.607ZM570.873 300.269C523.543 300.269 506.705 317.107 506.705 364.438V426.039C506.705 473.369 523.543 490.207 570.873 490.207H632.475C679.805 490.207 696.643 473.369 696.643 426.039V364.438C696.643 317.107 679.805 300.269 632.475 300.269H570.873Z" fill="white"/>
<path d="M699.005 352.722H504.345C500.135 352.722 496.645 349.231 496.645 345.021C496.645 340.812 500.033 337.321 504.345 337.321H699.005C703.214 337.321 706.705 340.812 706.705 345.021C706.705 349.231 703.317 352.722 699.005 352.722Z" fill="white"/>
<path d="M565.946 351.28C561.737 351.28 558.246 347.789 558.246 343.58V293.683C558.246 289.473 561.737 285.982 565.946 285.982C570.156 285.982 573.646 289.473 573.646 293.683V343.58C573.646 347.789 570.156 351.28 565.946 351.28Z" fill="white"/>
<path d="M637.403 346.66C633.194 346.66 629.703 343.169 629.703 338.96V293.683C629.703 289.473 633.194 285.982 637.403 285.982C641.613 285.982 645.103 289.473 645.103 293.683V338.96C645.103 343.272 641.715 346.66 637.403 346.66Z" fill="white"/>
<path d="M592.332 458.08C588.636 458.08 585.145 457.156 581.962 455.41C574.981 451.304 570.874 443.09 570.874 432.72V408.08C570.874 397.71 574.981 389.394 582.065 385.287C589.149 381.181 598.389 381.797 607.322 387.033L628.677 399.353C637.609 404.487 642.845 412.187 642.845 420.4C642.845 428.614 637.609 436.314 628.574 441.447L607.219 453.768C602.291 456.642 597.157 458.08 592.332 458.08ZM592.435 398.018C591.408 398.018 590.484 398.224 589.765 398.634C587.609 399.866 586.274 403.357 586.274 408.08V432.72C586.274 437.341 587.609 440.831 589.765 442.166C591.921 443.398 595.617 442.782 599.621 440.421L620.976 428.1C624.981 425.739 627.445 422.864 627.445 420.4C627.445 417.936 625.083 415.061 620.976 412.7L599.621 400.38C596.952 398.84 594.385 398.018 592.435 398.018Z" fill="white"/>
</svg>
