<svg width="1024" height="1024" viewBox="0 0 1024 1024" fill="none" xmlns="http://www.w3.org/2000/svg">
<g clip-path="url(#clip0_54732_13411)">
<rect width="1024" height="1024" rx="120" fill="#22292C"/>
<g filter="url(#filter0_bd_54732_13411)">
<path d="M803 0H1024V221H949C868.366 221 803 155.634 803 75V0Z" fill="#D9D9D9" fill-opacity="0.24" shape-rendering="crispEdges"/>
</g>
<g filter="url(#filter1_b_54732_13411)">
<path d="M805.5 0H1026.5V221C1026.5 221 996 169 924.5 97.5C853 26 805.5 0 805.5 0Z" fill="black"/>
</g>
<path d="M935.213 87.1828L940.114 75.9819L927.052 62.9477L915.942 67.7923L914.004 63.2033L952.205 47.0133L956.398 51.1971L940.128 89.2717L935.213 87.1828ZM931.48 60.9294L942.083 71.5096L950.318 52.6937L931.48 60.9294ZM943.959 95.1058L972.119 66.8851L975.949 70.7069L947.789 98.9276L943.959 95.1058Z" fill="white"/>
<g clip-path="url(#clip1_54732_13411)">
<g clip-path="url(#clip2_54732_13411)">
<path d="M512 793.25C667.33 793.25 793.25 667.33 793.25 512C793.25 356.67 667.33 230.75 512 230.75C356.67 230.75 230.75 356.67 230.75 512C230.75 667.33 356.67 793.25 512 793.25Z" stroke="#FDF5F1" stroke-width="17" stroke-linecap="round" stroke-linejoin="round"/>
<path d="M249.5 605.75H579.187" stroke="#FDF5F1" stroke-width="17" stroke-linecap="round" stroke-linejoin="round"/>
<path d="M669.262 281.861L402.539 475.647" stroke="#FDF5F1" stroke-width="17" stroke-linecap="round" stroke-linejoin="round"/>
<path d="M779.472 590.449L512.749 396.664" stroke="#FDF5F1" stroke-width="17" stroke-linecap="round" stroke-linejoin="round"/>
<path d="M520.045 790.623L621.924 477.072" stroke="#FDF5F1" stroke-width="17" stroke-linecap="round" stroke-linejoin="round"/>
<g filter="url(#filter2_d_54732_13411)">
<line x1="513.5" y1="201.997" x2="514.544" y2="816.997" stroke="#22292C" stroke-width="3"/>
</g>
</g>
</g>
<g clip-path="url(#clip3_54732_13411)" filter="url(#filter3_f_54732_13411)">
<path d="M511 793.25C666.33 793.25 792.25 667.33 792.25 512C792.25 356.67 666.33 230.75 511 230.75C355.67 230.75 229.75 356.67 229.75 512C229.75 667.33 355.67 793.25 511 793.25Z" stroke="#FDF5F1" stroke-width="17" stroke-linecap="round" stroke-linejoin="round"/>
<path d="M248.5 605.75H578.187" stroke="#FDF5F1" stroke-width="17" stroke-linecap="round" stroke-linejoin="round"/>
<path d="M340.722 291.318L442.601 604.87" stroke="#FDF5F1" stroke-width="17" stroke-linecap="round" stroke-linejoin="round"/>
<path d="M668.262 281.861L401.539 475.647" stroke="#FDF5F1" stroke-width="17" stroke-linecap="round" stroke-linejoin="round"/>
<path d="M778.472 590.449L511.749 396.664" stroke="#FDF5F1" stroke-width="17" stroke-linecap="round" stroke-linejoin="round"/>
<path d="M519.045 790.623L620.924 477.072" stroke="#FDF5F1" stroke-width="17" stroke-linecap="round" stroke-linejoin="round"/>
</g>
</g>
<defs>
<filter id="filter0_bd_54732_13411" x="781" y="-8" width="247" height="245" filterUnits="userSpaceOnUse" color-interpolation-filters="sRGB">
<feFlood flood-opacity="0" result="BackgroundImageFix"/>
<feGaussianBlur in="BackgroundImageFix" stdDeviation="2"/>
<feComposite in2="SourceAlpha" operator="in" result="effect1_backgroundBlur_54732_13411"/>
<feColorMatrix in="SourceAlpha" type="matrix" values="0 0 0 0 0 0 0 0 0 0 0 0 0 0 0 0 0 0 127 0" result="hardAlpha"/>
<feOffset dx="-10" dy="4"/>
<feGaussianBlur stdDeviation="6"/>
<feComposite in2="hardAlpha" operator="out"/>
<feColorMatrix type="matrix" values="0 0 0 0 0 0 0 0 0 0 0 0 0 0 0 0 0 0 0.25 0"/>
<feBlend mode="normal" in2="effect1_backgroundBlur_54732_13411" result="effect2_dropShadow_54732_13411"/>
<feBlend mode="normal" in="SourceGraphic" in2="effect2_dropShadow_54732_13411" result="shape"/>
</filter>
<filter id="filter1_b_54732_13411" x="801.5" y="-4" width="229" height="229" filterUnits="userSpaceOnUse" color-interpolation-filters="sRGB">
<feFlood flood-opacity="0" result="BackgroundImageFix"/>
<feGaussianBlur in="BackgroundImageFix" stdDeviation="2"/>
<feComposite in2="SourceAlpha" operator="in" result="effect1_backgroundBlur_54732_13411"/>
<feBlend mode="normal" in="SourceGraphic" in2="effect1_backgroundBlur_54732_13411" result="shape"/>
</filter>
<filter id="filter2_d_54732_13411" x="504.3" y="186.295" width="35.4439" height="646.405" filterUnits="userSpaceOnUse" color-interpolation-filters="sRGB">
<feFlood flood-opacity="0" result="BackgroundImageFix"/>
<feColorMatrix in="SourceAlpha" type="matrix" values="0 0 0 0 0 0 0 0 0 0 0 0 0 0 0 0 0 0 127 0" result="hardAlpha"/>
<feOffset dx="8"/>
<feGaussianBlur stdDeviation="7.85"/>
<feComposite in2="hardAlpha" operator="out"/>
<feColorMatrix type="matrix" values="0 0 0 0 0.610758 0 0 0 0 0.733397 0 0 0 0 1 0 0 0 1 0"/>
<feBlend mode="normal" in2="BackgroundImageFix" result="effect1_dropShadow_54732_13411"/>
<feBlend mode="normal" in="SourceGraphic" in2="effect1_dropShadow_54732_13411" result="shape"/>
</filter>
<filter id="filter3_f_54732_13411" x="103.8" y="104.8" width="440.4" height="814.4" filterUnits="userSpaceOnUse" color-interpolation-filters="sRGB">
<feFlood flood-opacity="0" result="BackgroundImageFix"/>
<feBlend mode="normal" in="SourceGraphic" in2="BackgroundImageFix" result="shape"/>
<feGaussianBlur stdDeviation="16.1" result="effect1_foregroundBlur_54732_13411"/>
</filter>
<clipPath id="clip0_54732_13411">
<rect width="1024" height="1024" rx="120" fill="white"/>
</clipPath>
<clipPath id="clip1_54732_13411">
<rect width="374" height="750" fill="white" transform="translate(513 137)"/>
</clipPath>
<clipPath id="clip2_54732_13411">
<rect width="750" height="750" fill="white" transform="translate(137 137)"/>
</clipPath>
<clipPath id="clip3_54732_13411">
<rect width="376" height="750" fill="white" transform="translate(136 137)"/>
</clipPath>
</defs>
</svg>
