<svg width="1024" height="1024" viewBox="0 0 1024 1024" fill="none" xmlns="http://www.w3.org/2000/svg">
<rect width="1024" height="1024" rx="120" fill="white"/>
<circle cx="459" cy="547" r="412" fill="#529AFF"/>
<path d="M632.941 501.463C633.512 432.658 574.913 369.586 502.325 360.855C500.756 360.659 499.194 360.421 497.638 360.141C493.989 359.442 490.289 359.044 486.575 358.951C471.681 358.951 467.708 369.42 466.661 375.629C465.638 381.696 466.614 386.811 469.54 390.784C474.465 397.47 483.149 398.659 490.12 399.611C492.142 399.897 494.069 400.158 495.687 400.515C560.924 415.1 582.883 438.011 593.614 502.7C593.875 504.271 593.994 506.222 594.137 508.291C594.613 516.024 595.564 532.107 612.861 532.107C614.288 532.107 615.859 531.988 617.477 531.75C633.56 529.3 633.06 514.596 632.822 507.53C632.751 505.532 632.679 503.652 632.87 502.391C632.908 502.075 632.923 501.757 632.917 501.439L632.941 501.463Z" fill="white"/>
<path d="M482.34 335.611C484.291 335.753 486.099 335.896 487.622 336.11C594.755 352.598 644.028 403.346 657.661 511.312C657.899 513.144 657.946 515.381 657.97 517.736C658.113 526.182 658.398 543.74 677.241 544.097H677.812C683.736 544.097 688.423 542.313 691.802 538.791C697.654 532.677 697.274 523.565 696.917 516.237C696.846 514.429 696.774 512.74 696.774 511.241C698.154 400.847 602.559 300.708 492.261 296.997C491.785 296.997 491.357 296.997 490.929 297.068C490.495 297.123 490.057 297.147 489.62 297.14C488.502 297.14 487.17 297.044 485.718 296.949C484.005 296.83 482.031 296.688 480.008 296.688C462.45 296.688 459.119 309.178 458.691 316.625C457.715 333.826 474.346 335.04 482.34 335.611ZM652.498 650.85C650.199 649.103 647.923 647.326 645.67 645.521C633.964 636.099 621.521 627.439 609.506 619.041L602.012 613.807C586.595 602.981 572.748 597.723 559.663 597.723C542.009 597.723 526.64 607.478 513.935 626.678C508.32 635.195 501.492 639.335 493.094 639.335C487.26 639.131 481.536 637.696 476.297 635.124C426.572 612.569 391.027 577.976 370.709 532.32C360.883 510.242 364.071 495.824 381.344 484.071C391.17 477.409 409.418 465.014 408.157 441.246C406.682 414.29 347.179 333.136 322.103 323.929C311.383 320.019 299.632 319.985 288.89 323.834C260.078 333.517 239.427 350.552 229.078 373.035C219.085 394.781 219.561 420.309 230.362 446.86C261.648 523.636 305.615 590.586 361.074 645.83C415.342 699.909 482.054 744.185 559.33 777.469C566.301 780.467 573.605 782.109 578.958 783.298C580.766 783.703 582.336 784.06 583.478 784.369C584.107 784.538 584.754 784.626 585.405 784.631H586.024C622.378 784.631 666.035 751.418 679.43 713.565C691.183 680.399 669.723 664.007 652.498 650.85ZM498.423 423.331C492.213 423.473 479.247 423.806 474.703 436.987C472.561 443.173 472.823 448.502 475.464 452.904C479.318 459.327 486.717 461.326 493.427 462.42C517.813 466.322 530.351 479.788 532.85 504.841C534.015 516.499 541.89 524.659 551.954 524.659C552.718 524.658 553.481 524.61 554.238 524.516C566.372 523.089 572.249 514.167 571.725 498.013C571.915 481.168 563.113 462.04 548.1 446.813C533.064 431.539 514.934 422.926 498.423 423.331Z" fill="white"/>
<path d="M746.44 181.495C758.164 172.339 767.149 164.68 773.396 158.519C779.728 152.272 783.964 147.095 786.103 142.988C788.243 138.88 789.312 134.601 789.312 130.152C789.312 120.653 784.221 115.904 774.038 115.904C766.849 115.904 758.677 118.856 749.521 124.76L744.772 110.384C749.05 107.475 754.014 105.207 759.661 103.581C765.395 101.87 771.043 101.014 776.605 101.014C786.617 101.014 794.318 103.453 799.71 108.33C805.186 113.123 807.925 119.797 807.925 128.355C807.925 136.398 805.357 144.143 800.223 151.588C795.174 159.032 785.248 168.916 770.444 181.239V181.495H808.053V196H746.44V181.495ZM827.005 129.253H842.665L842.922 138.623H843.178C845.745 135.286 848.912 132.676 852.677 130.793C856.528 128.911 860.464 127.969 864.486 127.969C872.188 127.969 877.835 130.365 881.429 135.158C885.109 139.864 886.949 147.608 886.949 158.391V196H870.519V160.059C870.519 152.7 869.663 147.737 867.952 145.17C866.24 142.517 863.16 141.19 858.71 141.19C854.945 141.19 851.479 143.116 848.313 146.967C845.232 150.817 843.692 155.31 843.692 160.444V196H827.005V129.253ZM963.401 99.7303V196H947.87L947.484 186.63H947.228C942.179 193.732 935.376 197.284 926.819 197.284C918.86 197.284 912.4 194.289 907.436 188.298C902.559 182.223 900.12 173.665 900.12 162.627C900.12 151.331 902.473 142.731 907.18 136.826C911.972 130.922 918.518 127.969 926.819 127.969C934.862 127.969 941.409 131.264 946.458 137.853H946.714V99.7303H963.401ZM916.165 162.627C916.165 169.558 917.577 174.906 920.401 178.671C923.31 182.351 927.033 184.191 931.568 184.191C936.103 184.191 939.74 182.394 942.478 178.8C945.302 175.12 946.714 169.943 946.714 163.268V161.985C946.714 155.481 945.302 150.39 942.478 146.71C939.74 142.945 936.103 141.062 931.568 141.062C926.69 141.062 922.882 142.859 920.144 146.453C917.491 150.047 916.165 155.438 916.165 162.627Z" fill="#529AFF"/>
</svg>
