<svg width="1024" height="1024" viewBox="0 0 1024 1024" fill="none" xmlns="http://www.w3.org/2000/svg">
<rect width="1024" height="1024" rx="120" fill="#CEFFDC"/>
<path d="M529.666 805.644C525.847 805.95 521.958 805.384 518.37 803.885L402.733 755.611C369.919 741.896 343.807 725.646 322.858 705.957C277.008 662.9 248.795 605.176 243.473 543.38L225.88 339.995C223.844 316.522 237.402 294.222 259.556 284.459L457.824 197.437C469.588 192.168 483.09 191.026 495.748 194.189L705.918 246.094C729.441 251.867 746.61 271.557 748.611 295.002L766.217 498.538C771.563 560.241 753.719 621.894 715.996 672.155C698.686 695.21 675.732 715.66 645.852 734.697L540.464 801.965C537.196 804.073 533.482 805.309 529.666 805.644Z" fill="url(#paint0_linear_54769_688)"/>
<g filter="url(#filter0_f_54769_688)">
<path d="M524.731 687.095C522.141 687.303 519.509 686.994 517.088 686.13L439.058 658.308C416.916 650.403 399.333 640.951 385.271 629.424C354.496 604.217 335.773 570.196 332.589 533.605L322.059 413.176C320.84 399.277 330.18 385.967 345.259 380.028L480.209 327.093C488.217 323.889 497.374 323.12 505.93 324.908L647.995 354.235C663.896 357.496 675.395 369.048 676.591 382.931L687.129 503.45C690.329 539.986 677.816 576.651 651.909 606.699C640.022 620.483 624.327 632.76 603.949 644.248L532.073 684.841C529.844 686.113 527.319 686.87 524.731 687.095Z" fill="#1EA56C" fill-opacity="0.5"/>
</g>
<g filter="url(#filter1_b_54769_688)">
<mask id="path-4-outside-1_54769_688" maskUnits="userSpaceOnUse" x="152.273" y="90.7891" width="721" height="844" fill="black">
<rect fill="white" x="152.273" y="90.7891" width="721" height="844"/>
<path d="M516.536 924.621C511.441 924.621 506.347 923.451 501.749 921.071L353.594 844.379C311.554 822.594 278.668 798.146 252.988 769.664C196.783 707.374 165.512 627.414 165.015 544.469L163.275 271.468C163.068 239.96 183.405 211.679 213.806 201.029L485.844 106.182C501.998 100.413 520.015 100.333 536.458 105.9L809.532 197.519C840.099 207.726 860.767 235.805 860.933 267.272L862.672 540.475C863.211 623.299 833.016 703.582 777.681 766.557C752.291 795.443 719.695 820.254 678.069 842.443L531.239 920.869C526.683 923.33 521.63 924.581 516.536 924.621Z"/>
</mask>
<path d="M516.536 924.621C511.441 924.621 506.347 923.451 501.749 921.071L353.594 844.379C311.554 822.594 278.668 798.146 252.988 769.664C196.783 707.374 165.512 627.414 165.015 544.469L163.275 271.468C163.068 239.96 183.405 211.679 213.806 201.029L485.844 106.182C501.998 100.413 520.015 100.333 536.458 105.9L809.532 197.519C840.099 207.726 860.767 235.805 860.933 267.272L862.672 540.475C863.211 623.299 833.016 703.582 777.681 766.557C752.291 795.443 719.695 820.254 678.069 842.443L531.239 920.869C526.683 923.33 521.63 924.581 516.536 924.621Z" fill="#60DC6A" fill-opacity="0.35"/>
<path d="M516.536 934.697C522.1 934.697 526.611 930.186 526.611 924.621C526.611 919.057 522.1 914.546 516.536 914.546V934.697ZM501.749 921.071L506.381 912.124L506.381 912.123L501.749 921.071ZM353.594 844.379L348.959 853.325L348.962 853.327L353.594 844.379ZM252.988 769.664L260.471 762.917L260.468 762.914L252.988 769.664ZM165.015 544.469L175.09 544.409L175.09 544.405L165.015 544.469ZM163.275 271.468L173.35 271.404L173.35 271.402L163.275 271.468ZM213.806 201.029L210.489 191.515C210.484 191.517 210.479 191.518 210.475 191.52L213.806 201.029ZM485.844 106.182L489.161 115.696C489.185 115.688 489.209 115.68 489.233 115.671L485.844 106.182ZM536.458 105.9L533.227 115.443C533.236 115.446 533.244 115.449 533.253 115.452L536.458 105.9ZM809.532 197.519L806.327 207.071C806.332 207.073 806.336 207.074 806.341 207.076L809.532 197.519ZM860.933 267.272L850.857 267.325L850.857 267.336L860.933 267.272ZM862.672 540.475L852.597 540.539V540.541L862.672 540.475ZM777.681 766.557L785.249 773.209L785.25 773.208L777.681 766.557ZM678.069 842.443L673.329 833.551L673.322 833.555L678.069 842.443ZM531.239 920.869L526.492 911.982C526.478 911.99 526.465 911.997 526.451 912.004L531.239 920.869ZM516.456 914.546C510.891 914.59 506.416 919.137 506.46 924.701C506.504 930.265 511.051 934.74 516.615 934.696L516.456 914.546ZM516.536 914.546C512.973 914.546 509.477 913.726 506.381 912.124L497.117 930.018C503.216 933.176 509.91 934.697 516.536 934.697V914.546ZM506.381 912.123L358.226 835.431L348.962 853.327L497.117 930.019L506.381 912.123ZM358.23 835.433C317.025 814.081 285.179 790.321 260.471 762.917L245.505 776.41C272.156 805.97 306.083 831.107 348.959 853.325L358.23 835.433ZM260.468 762.914C205.896 702.434 175.572 624.846 175.09 544.409L154.939 544.529C155.451 629.983 187.67 712.315 245.508 776.413L260.468 762.914ZM175.09 544.405L173.35 271.404L153.2 271.532L154.939 544.533L175.09 544.405ZM173.35 271.402C173.172 244.346 190.657 219.814 217.137 210.538L210.475 191.52C176.152 203.545 152.963 235.574 153.2 271.534L173.35 271.402ZM217.123 210.543L489.161 115.696L482.527 96.6687L210.489 191.515L217.123 210.543ZM489.233 115.671C503.209 110.68 518.893 110.59 533.227 115.443L539.689 96.3568C521.137 90.0752 500.786 90.1473 482.456 96.694L489.233 115.671ZM533.253 115.452L806.327 207.071L812.737 187.967L539.663 96.3479L533.253 115.452ZM806.341 207.076C832.941 215.958 850.715 240.305 850.857 267.325L871.008 267.219C870.819 231.305 847.257 199.494 812.723 187.962L806.341 207.076ZM850.857 267.336L852.597 540.539L872.747 540.411L871.008 267.208L850.857 267.336ZM852.597 540.541C853.119 620.86 823.84 698.761 770.112 759.907L785.25 773.208C842.193 708.403 873.302 625.739 872.747 540.41L852.597 540.541ZM770.113 759.906C745.685 787.698 714.124 811.806 673.329 833.551L682.808 851.334C725.265 828.702 758.898 803.188 785.249 773.209L770.113 759.906ZM673.322 833.555L526.492 911.982L535.986 929.757L682.816 851.33L673.322 833.555ZM526.451 912.004C523.385 913.66 519.956 914.518 516.456 914.546L516.615 934.696C523.305 934.643 529.981 933 536.028 929.734L526.451 912.004Z" fill="url(#paint1_linear_54769_688)" mask="url(#path-4-outside-1_54769_688)"/>
</g>
<g filter="url(#filter2_bd_54769_688)">
<path d="M484.966 608.713C477.014 608.753 469.062 605.889 462.932 599.999L384.07 524.154C371.893 512.374 371.769 493.251 383.822 481.39C395.875 469.489 415.549 469.368 427.767 481.108L484.511 535.652L623.057 399.05C635.151 387.149 654.825 387.028 667.002 398.768C679.22 410.548 679.345 429.711 667.292 441.531L506.877 599.716C500.83 605.687 492.919 608.672 484.966 608.713Z" fill="url(#paint2_linear_54769_688)"/>
<path d="M384.529 482.108L384.53 482.107C396.193 470.59 415.244 470.472 427.069 481.834C427.069 481.834 427.069 481.834 427.069 481.834L483.813 536.378L484.52 537.058L485.218 536.369L623.763 399.768C635.47 388.249 654.52 388.134 666.303 399.493C678.116 410.883 678.231 429.392 666.586 440.812L666.584 440.814L506.17 598.999L506.169 598.999C500.319 604.775 492.665 607.666 484.961 607.705C477.254 607.744 469.559 604.969 463.63 599.272L384.771 523.43C372.998 512.041 372.882 493.57 384.529 482.108Z" stroke="url(#paint3_linear_54769_688)" stroke-opacity="0.5" stroke-width="2.0151"/>
</g>
<defs>
<filter id="filter0_f_54769_688" x="160.744" y="162.757" width="688.084" height="685.608" filterUnits="userSpaceOnUse" color-interpolation-filters="sRGB">
<feFlood flood-opacity="0" result="BackgroundImageFix"/>
<feBlend mode="normal" in="SourceGraphic" in2="BackgroundImageFix" result="shape"/>
<feGaussianBlur stdDeviation="80.604" result="effect1_foregroundBlur_54769_688"/>
</filter>
<filter id="filter1_b_54769_688" x="-88.6136" y="-150.098" width="1203.18" height="1326.61" filterUnits="userSpaceOnUse" color-interpolation-filters="sRGB">
<feFlood flood-opacity="0" result="BackgroundImageFix"/>
<feGaussianBlur in="BackgroundImageFix" stdDeviation="120.906"/>
<feComposite in2="SourceAlpha" operator="in" result="effect1_backgroundBlur_54769_688"/>
<feBlend mode="normal" in="SourceGraphic" in2="effect1_backgroundBlur_54769_688" result="shape"/>
</filter>
<filter id="filter2_bd_54769_688" x="223.727" y="238.911" width="603.654" height="520.935" filterUnits="userSpaceOnUse" color-interpolation-filters="sRGB">
<feFlood flood-opacity="0" result="BackgroundImageFix"/>
<feGaussianBlur in="BackgroundImageFix" stdDeviation="75.5662"/>
<feComposite in2="SourceAlpha" operator="in" result="effect1_backgroundBlur_54769_688"/>
<feColorMatrix in="SourceAlpha" type="matrix" values="0 0 0 0 0 0 0 0 0 0 0 0 0 0 0 0 0 0 127 0" result="hardAlpha"/>
<feOffset dx="50.3775" dy="50.3775"/>
<feGaussianBlur stdDeviation="50.3775"/>
<feColorMatrix type="matrix" values="0 0 0 0 0.454902 0 0 0 0 0.870588 0 0 0 0 0.376471 0 0 0 0.5 0"/>
<feBlend mode="normal" in2="effect1_backgroundBlur_54769_688" result="effect2_dropShadow_54769_688"/>
<feBlend mode="normal" in="SourceGraphic" in2="effect2_dropShadow_54769_688" result="shape"/>
</filter>
<linearGradient id="paint0_linear_54769_688" x1="740.047" y1="171.549" x2="337.318" y2="644.259" gradientUnits="userSpaceOnUse">
<stop stop-color="#63F781"/>
<stop offset="1" stop-color="#2FAB26"/>
</linearGradient>
<linearGradient id="paint1_linear_54769_688" x1="274.607" y1="197.65" x2="810.834" y2="762.159" gradientUnits="userSpaceOnUse">
<stop stop-color="white" stop-opacity="0.25"/>
<stop offset="1" stop-color="white" stop-opacity="0"/>
</linearGradient>
<linearGradient id="paint2_linear_54769_688" x1="654.881" y1="429.53" x2="319.482" y2="444.603" gradientUnits="userSpaceOnUse">
<stop stop-color="white"/>
<stop offset="1" stop-color="white" stop-opacity="0.2"/>
</linearGradient>
<linearGradient id="paint3_linear_54769_688" x1="407.326" y1="463.396" x2="663.24" y2="465.343" gradientUnits="userSpaceOnUse">
<stop stop-color="white"/>
<stop offset="1" stop-color="white" stop-opacity="0"/>
</linearGradient>
</defs>
</svg>
