<svg width="1024" height="1024" viewBox="0 0 1024 1024" fill="none" xmlns="http://www.w3.org/2000/svg">
<rect width="1024" height="1024" rx="120" fill="#1C2B46"/>
<path d="M746.198 284.977L575.528 239.246C513.622 222.658 467.866 249.248 451.223 311.358L394.858 521.717C377.943 584.845 404.492 629.936 466.399 646.524L637.068 692.254C699.973 709.109 744.493 683.061 761.408 619.933L817.773 409.574C834.416 347.465 809.102 301.832 746.198 284.977Z" fill="url(#paint0_linear_54736_246)"/>
<g opacity="0.5" filter="url(#filter0_f_54736_246)">
<path d="M701.607 342.581L585.328 311.424C543.151 300.123 511.976 318.238 500.638 360.554L462.236 503.874C450.711 546.884 468.8 577.605 510.977 588.906L627.256 620.063C670.113 631.547 700.445 613.8 711.97 570.79L750.372 427.47C761.711 385.154 744.464 354.064 701.607 342.581Z" fill="#C6BBDB"/>
</g>
<g filter="url(#filter1_b_54736_246)">
<mask id="path-4-outside-1_54736_246" maskUnits="userSpaceOnUse" x="208" y="319.867" width="498" height="498" fill="black">
<rect fill="white" x="208" y="319.867" width="498" height="498"/>
<path d="M561.838 325.867H351.534C269.305 325.867 214 383.598 214 469.466V667.641C214 753.267 269.305 810.997 351.534 810.997H561.838C644.068 810.997 699.13 753.267 699.13 667.641V469.466C699.13 383.598 644.068 325.867 561.838 325.867Z"/>
</mask>
<path d="M561.838 325.867H351.534C269.305 325.867 214 383.598 214 469.466V667.641C214 753.267 269.305 810.997 351.534 810.997H561.838C644.068 810.997 699.13 753.267 699.13 667.641V469.466C699.13 383.598 644.068 325.867 561.838 325.867Z" fill="#A694D4" fill-opacity="0.35"/>
<path d="M561.838 331.808C565.119 331.808 567.778 329.148 567.778 325.867C567.778 322.586 565.119 319.927 561.838 319.927V331.808ZM561.838 319.927C558.557 319.927 555.898 322.586 555.898 325.867C555.898 329.148 558.557 331.808 561.838 331.808V319.927ZM561.838 319.927H351.534V331.808H561.838V319.927ZM351.534 319.927C308.977 319.927 272.984 334.899 247.641 361.357C222.32 387.793 208.06 425.244 208.06 469.466H219.94C219.94 427.819 233.333 393.471 256.221 369.575C279.088 345.701 311.862 331.808 351.534 331.808V319.927ZM208.06 469.466V667.641H219.94V469.466H208.06ZM208.06 667.641C208.06 711.746 222.323 749.136 247.644 775.54C272.985 801.966 308.978 816.937 351.534 816.937V805.057C311.861 805.057 279.086 791.163 256.219 767.317C233.33 743.449 219.94 709.162 219.94 667.641H208.06ZM351.534 816.937H561.838V805.057H351.534V816.937ZM561.838 816.937C604.396 816.937 640.33 801.965 665.613 775.535C690.873 749.128 705.07 711.739 705.07 667.641H693.189C693.189 709.169 679.856 743.457 657.027 767.322C634.221 791.164 601.51 805.057 561.838 805.057V816.937ZM705.07 667.641V469.466H693.189V667.641H705.07ZM705.07 469.466C705.07 425.251 690.875 387.801 665.615 361.362C640.332 334.9 604.396 319.927 561.838 319.927V331.808C601.509 331.808 634.219 345.7 657.025 369.57C679.853 393.463 693.189 427.812 693.189 469.466H705.07Z" fill="url(#paint1_linear_54736_246)" mask="url(#path-4-outside-1_54736_246)"/>
</g>
<g filter="url(#filter2_bd_54736_246)">
<mask id="path-6-inside-2_54736_246" fill="white">
<path d="M427.772 647.226C422.338 647.226 416.905 645.164 412.757 641.016L355.196 583.456C346.901 575.16 346.901 561.722 355.196 553.45C363.492 545.155 376.906 545.13 385.202 553.426L427.772 595.996L527.903 495.865C536.198 487.57 549.612 487.57 557.908 495.865C566.204 504.161 566.204 517.599 557.908 525.895L442.787 641.016C438.639 645.164 433.205 647.226 427.772 647.226Z"/>
</mask>
<path d="M427.772 647.226C422.338 647.226 416.905 645.164 412.757 641.016L355.196 583.456C346.901 575.16 346.901 561.722 355.196 553.45C363.492 545.155 376.906 545.13 385.202 553.426L427.772 595.996L527.903 495.865C536.198 487.57 549.612 487.57 557.908 495.865C566.204 504.161 566.204 517.599 557.908 525.895L442.787 641.016C438.639 645.164 433.205 647.226 427.772 647.226Z" fill="url(#paint2_linear_54736_246)"/>
<path d="M355.196 553.45L356.035 554.292L356.036 554.29L355.196 553.45ZM427.772 595.996L426.932 596.836L427.772 597.676L428.612 596.836L427.772 595.996ZM557.908 525.895L557.068 525.055L557.908 525.895ZM442.787 641.016L443.627 641.856L442.787 641.016ZM427.772 646.038C422.639 646.038 417.512 644.091 413.597 640.176L411.917 641.856C416.298 646.237 422.038 648.414 427.772 648.414V646.038ZM413.597 640.176L356.036 582.615L354.356 584.296L411.917 641.856L413.597 640.176ZM356.036 582.615C348.204 574.783 348.206 562.098 356.035 554.292L354.358 552.609C345.596 561.345 345.597 575.537 354.356 584.296L356.036 582.615ZM356.036 554.29C363.87 546.457 376.532 546.436 384.362 554.266L386.042 552.586C377.28 543.824 363.114 543.852 354.356 552.61L356.036 554.29ZM384.362 554.266L426.932 596.836L428.612 595.156L386.042 552.586L384.362 554.266ZM428.612 596.836L528.743 496.705L527.063 495.025L426.932 595.156L428.612 596.836ZM528.743 496.705C536.574 488.874 549.236 488.874 557.068 496.705L558.748 495.025C549.988 486.266 535.822 486.266 527.063 495.025L528.743 496.705ZM557.068 496.705C564.9 504.537 564.9 517.223 557.068 525.055L558.748 526.735C567.508 517.975 567.508 503.785 558.748 495.025L557.068 496.705ZM557.068 525.055L441.947 640.176L443.627 641.856L558.748 526.735L557.068 525.055ZM441.947 640.176C438.031 644.091 432.905 646.038 427.772 646.038V648.414C433.506 648.414 439.246 646.237 443.627 641.856L441.947 640.176Z" fill="url(#paint3_linear_54736_246)" fill-opacity="0.5" mask="url(#path-6-inside-2_54736_246)"/>
</g>
<defs>
<filter id="filter0_f_54736_246" x="375.665" y="224.965" width="461.27" height="481.678" filterUnits="userSpaceOnUse" color-interpolation-filters="sRGB">
<feFlood flood-opacity="0" result="BackgroundImageFix"/>
<feBlend mode="normal" in="SourceGraphic" in2="BackgroundImageFix" result="shape"/>
<feGaussianBlur stdDeviation="41.5826" result="effect1_foregroundBlur_54736_246"/>
</filter>
<filter id="filter1_b_54736_246" x="65.4918" y="177.358" width="782.147" height="782.148" filterUnits="userSpaceOnUse" color-interpolation-filters="sRGB">
<feFlood flood-opacity="0" result="BackgroundImageFix"/>
<feGaussianBlur in="BackgroundImageFix" stdDeviation="71.2844"/>
<feComposite in2="SourceAlpha" operator="in" result="effect1_backgroundBlur_54736_246"/>
<feBlend mode="normal" in="SourceGraphic" in2="effect1_backgroundBlur_54736_246" result="shape"/>
</filter>
<filter id="filter2_bd_54736_246" x="259.869" y="400.538" width="393.365" height="335.793" filterUnits="userSpaceOnUse" color-interpolation-filters="sRGB">
<feFlood flood-opacity="0" result="BackgroundImageFix"/>
<feGaussianBlur in="BackgroundImageFix" stdDeviation="44.5527"/>
<feComposite in2="SourceAlpha" operator="in" result="effect1_backgroundBlur_54736_246"/>
<feColorMatrix in="SourceAlpha" type="matrix" values="0 0 0 0 0 0 0 0 0 0 0 0 0 0 0 0 0 0 127 0" result="hardAlpha"/>
<feOffset dx="29.7018" dy="29.7018"/>
<feGaussianBlur stdDeviation="29.7018"/>
<feColorMatrix type="matrix" values="0 0 0 0 0.51436 0 0 0 0 0.330188 0 0 0 0 0.581331 0 0 0 0.5 0"/>
<feBlend mode="normal" in2="effect1_backgroundBlur_54736_246" result="effect2_dropShadow_54736_246"/>
<feBlend mode="normal" in="SourceGraphic" in2="effect2_dropShadow_54736_246" result="shape"/>
</filter>
<linearGradient id="paint0_linear_54736_246" x1="844.128" y1="311.217" x2="471.931" y2="539.012" gradientUnits="userSpaceOnUse">
<stop stop-color="#BDA1DE"/>
<stop offset="1" stop-color="#A084B0"/>
</linearGradient>
<linearGradient id="paint1_linear_54736_246" x1="291.225" y1="382.385" x2="600.686" y2="765.661" gradientUnits="userSpaceOnUse">
<stop stop-color="white" stop-opacity="0.25"/>
<stop offset="1" stop-color="white" stop-opacity="0"/>
</linearGradient>
<linearGradient id="paint2_linear_54736_246" x1="548.875" y1="518.1" x2="309.433" y2="528.759" gradientUnits="userSpaceOnUse">
<stop stop-color="white"/>
<stop offset="1" stop-color="white" stop-opacity="0.2"/>
</linearGradient>
<linearGradient id="paint3_linear_54736_246" x1="372.152" y1="542.505" x2="554.843" y2="543.882" gradientUnits="userSpaceOnUse">
<stop stop-color="white"/>
<stop offset="1" stop-color="white" stop-opacity="0"/>
</linearGradient>
</defs>
</svg>
