<svg width="100" height="100" viewBox="0 0 100 100" fill="none" xmlns="http://www.w3.org/2000/svg">
<g clip-path="url(#clip0_33_719)">
<rect width="100" height="100" rx="24" fill="white"/>
<path d="M49.8786 94.1042C49.5106 94.1042 49.1425 94.0892 48.7729 94.0622C42.6963 93.5985 36.8783 91.4094 32.0035 87.7522C24.5604 82.1696 17.9489 75.5572 12.3675 68.1132C8.70983 63.2385 6.52064 57.4206 6.05755 51.3438C5.8974 49.2805 6.1862 47.207 6.90409 45.266C7.62198 43.3251 8.75191 41.5626 10.2161 40.1001L13.981 36.3307C15.4679 34.8463 17.4831 34.0127 19.5841 34.0127C21.6852 34.0127 23.7003 34.8463 25.1872 36.3307L28.5916 39.7365C29.3274 40.4723 29.9111 41.3458 30.3094 42.3072C30.7077 43.2686 30.9126 44.2991 30.9126 45.3396C30.9126 46.3801 30.7077 47.4106 30.3094 48.372C29.9111 49.3333 29.3274 50.207 28.5916 50.9427L26.6385 52.8958C25.8364 53.7012 25.3371 54.759 25.2252 55.8901C25.1133 57.0214 25.3954 58.1564 26.024 59.1035C29.9771 65.0441 35.0729 70.1384 41.0147 74.0897C41.9621 74.7172 43.0969 74.9987 44.2279 74.8867C45.3588 74.7747 46.4164 74.2763 47.2224 73.4752L49.1755 71.5221C49.9112 70.7863 50.7849 70.2026 51.7462 69.8043C52.7076 69.406 53.7381 69.2011 54.7786 69.2011C55.8191 69.2011 56.8496 69.406 57.811 69.8043C58.7724 70.2026 59.646 70.7863 60.3817 71.5221L63.7876 74.9265C64.5234 75.6623 65.1071 76.5358 65.5054 77.4972C65.9036 78.4585 66.1086 79.489 66.1086 80.5296C66.1086 81.5701 65.9036 82.6006 65.5054 83.5619C65.1071 84.5233 64.5234 85.3969 63.7876 86.1327L60.0136 89.8976C58.6836 91.2303 57.1038 92.2879 55.3648 93.0097C53.6258 93.7315 51.7616 94.1035 49.8786 94.1042ZM19.5834 37.0142C18.9375 37.0134 18.2976 37.1401 17.7009 37.3871C17.104 37.6341 16.5618 37.9965 16.1054 38.4535L12.3359 42.2244C11.1784 43.3808 10.2851 44.7743 9.71744 46.3088C9.14972 47.8433 8.92109 49.4827 9.04726 51.1139C9.46916 56.6209 11.4545 61.893 14.7698 66.3104C20.1809 73.5243 26.5894 79.9328 33.8033 85.3439C38.2204 88.6598 43.4927 90.6452 48.9997 91.0664C50.6309 91.1905 52.2695 90.9608 53.8039 90.3932C55.3381 89.8258 56.7315 88.9335 57.8893 87.7777L61.6587 84.0083C62.5812 83.0855 63.0993 81.8344 63.0993 80.5296C63.0993 79.2249 62.5812 77.9736 61.6587 77.0508L58.2528 73.6465C57.3163 72.7511 56.0705 72.2514 54.7749 72.2514C53.4792 72.2514 52.2334 72.7511 51.2969 73.6465L49.3438 75.5995C48.0463 76.8911 46.3428 77.6949 44.521 77.8753C42.6993 78.0558 40.871 77.6016 39.3455 76.5896C33.0746 72.4183 27.6969 67.0406 23.5256 60.7697C22.5133 59.2442 22.059 57.4159 22.2394 55.5942C22.4198 53.7724 23.2239 52.0687 24.5156 50.7714L26.4687 48.8183C27.3912 47.8959 27.9093 46.6448 27.9093 45.3403C27.9093 44.0358 27.3912 42.7848 26.4687 41.8624L23.0629 38.455C22.6063 37.9977 22.0638 37.635 21.4667 37.3877C20.8697 37.1405 20.2297 37.0136 19.5834 37.0142Z" fill="#3E98D9" fill-opacity="0.77"/>
<path fill-rule="evenodd" clip-rule="evenodd" d="M43.7574 24.2587C44.7901 23.2334 46.4685 23.2494 47.5061 24.2945L77.5683 54.5717C78.6059 55.6168 78.6099 57.2953 77.5773 58.3206C76.5446 59.3459 74.8662 59.3299 73.8286 58.2848L43.7664 28.0076C42.7288 26.9625 42.7248 25.284 43.7574 24.2587Z" fill="#5DA7DE"/>
<path fill-rule="evenodd" clip-rule="evenodd" d="M61.2093 6.9308C62.2419 5.90549 63.9203 5.92151 64.958 6.96658L95.0201 37.2438C96.0577 38.2889 96.0618 39.9674 95.0291 40.9927C93.9965 42.018 92.3181 42.002 91.2804 40.9569L61.2183 10.6797C60.1807 9.63461 60.1766 7.95611 61.2093 6.9308Z" fill="#5DA7DE"/>
<path fill-rule="evenodd" clip-rule="evenodd" d="M42.5471 40.492C43.5797 39.4666 45.2582 39.4827 46.2958 40.5277L61.3269 55.6664C62.3645 56.7114 62.3686 58.3899 61.3359 59.4152C60.3033 60.4406 58.6248 60.4245 57.5872 59.3795L42.5561 44.2408C41.5185 43.1958 41.5144 41.5173 42.5471 40.492Z" fill="#68B7FF"/>
<path fill-rule="evenodd" clip-rule="evenodd" d="M59.9989 23.1642C61.0316 22.1389 62.71 22.1549 63.7476 23.2L78.7787 38.3386C79.8163 39.3837 79.8204 41.0622 78.7877 42.0875C77.7551 43.1128 76.0767 43.0968 75.039 42.0517L60.0079 26.9131C58.9703 25.868 58.9663 24.1895 59.9989 23.1642Z" fill="#68B7FF"/>
<path fill-rule="evenodd" clip-rule="evenodd" d="M77.4508 5.83632C78.4834 4.811 80.1618 4.82702 81.1995 5.87209L96.2305 21.0107C97.2682 22.0558 97.2722 23.7343 96.2396 24.7596C95.2069 25.7849 93.5285 25.7689 92.4909 24.7238L77.4598 9.5852C76.4222 8.54013 76.4181 6.86163 77.4508 5.83632Z" fill="#68B7FF"/>
</g>
<defs>
<clipPath id="clip0_33_719">
<rect width="100" height="100" rx="24" fill="white"/>
</clipPath>
</defs>
</svg>
