<svg width="1024" height="1024" viewBox="0 0 1024 1024" fill="none" xmlns="http://www.w3.org/2000/svg">
<rect width="1024" height="1024" rx="120" fill="#DEF1FB"/>
<path opacity="0.5" d="M194.75 441.495C194.75 308.559 194.75 242.091 236.048 200.793C277.346 159.495 343.814 159.495 476.75 159.495H547.25C680.185 159.495 746.656 159.495 787.951 200.793C829.25 242.091 829.25 308.559 829.25 441.495V582.495C829.25 715.43 829.25 781.901 787.951 823.196C746.656 864.495 680.185 864.495 547.25 864.495H476.75C343.814 864.495 277.346 864.495 236.048 823.196C194.75 781.901 194.75 715.43 194.75 582.495V441.495Z" fill="#8EBAF1"/>
<path d="M771.788 539.464C775.149 536.842 778.197 533.794 784.295 527.696L860.298 451.693C862.134 449.856 861.293 446.691 858.839 445.839C849.868 442.727 838.197 436.883 827.28 425.967C816.364 415.05 810.52 403.379 807.408 394.408C806.556 391.953 803.391 391.112 801.555 392.949L725.551 468.952C719.453 475.05 716.405 478.098 713.784 481.459C710.692 485.425 708.039 489.714 705.877 494.254C704.043 498.101 702.679 502.191 699.954 510.371L696.43 520.94L690.827 537.745L685.575 553.503C684.234 557.528 685.281 561.965 688.281 564.966C691.282 567.966 695.719 569.013 699.744 567.673L715.502 562.42L732.307 556.818L742.876 553.293C751.054 550.568 755.146 549.205 758.993 547.37C763.534 545.208 767.822 542.556 771.788 539.464Z" fill="black"/>
<path d="M884.095 427.91C900.318 411.687 900.318 385.387 884.095 369.165C867.874 352.944 841.574 352.944 825.351 369.165L822.908 371.609C820.55 373.967 819.482 377.26 820.072 380.542C820.442 382.607 821.128 385.625 822.378 389.227C824.877 396.431 829.596 405.886 838.486 414.775C847.374 423.665 856.831 428.384 864.033 430.883C867.636 432.133 870.653 432.818 872.718 433.189C876 433.779 879.294 432.711 881.652 430.352L884.095 427.91Z" fill="black"/>
<path fill-rule="evenodd" clip-rule="evenodd" d="M344.562 406.243C344.562 391.642 356.399 379.806 371 379.806H600.125C614.726 379.806 626.562 391.642 626.562 406.243C626.562 420.844 614.726 432.681 600.125 432.681H371C356.399 432.681 344.562 420.844 344.562 406.243ZM344.562 547.243C344.562 532.643 356.399 520.806 371 520.806H476.75C491.351 520.806 503.188 532.643 503.188 547.243C503.188 561.844 491.351 573.681 476.75 573.681H371C356.399 573.681 344.562 561.844 344.562 547.243ZM344.562 688.243C344.562 673.643 356.399 661.806 371 661.806H423.875C438.476 661.806 450.312 673.643 450.312 688.243C450.312 702.844 438.476 714.681 423.875 714.681H371C356.399 714.681 344.562 702.844 344.562 688.243Z" fill="black"/>
<path d="M501.581 716.229H560.311C559.159 720.658 558.539 724.999 558.539 728.985C558.539 743.247 566.511 753.434 583.253 753.434C603.627 753.434 620.103 739.083 630.733 716.229H753.42C756.52 716.229 759 713.838 759 710.737C759 707.637 756.52 705.334 753.42 705.334H635.162C640.123 690.806 643.134 673.799 643.755 655.373C649.336 654.133 655.181 653.513 661.206 653.513C664.306 653.513 666.077 654.842 666.077 657.145C666.077 664.852 661.914 670.875 661.914 678.582C661.914 685.314 666.875 689.389 673.341 689.389C691.323 689.389 713.026 658.651 720.2 658.651C726.755 658.651 718.606 686.288 740.929 686.288C744.561 686.288 749.256 685.314 752.888 683.011C755.014 681.505 756.52 679.379 756.52 676.633C756.52 673.267 754.394 670.521 750.851 670.521C747.75 670.521 745.182 673.09 742.17 673.09C732.602 673.09 741.726 643.681 724.099 643.681C708.686 643.681 684.59 673.621 678.479 673.621C677.682 673.621 677.062 673.178 677.062 672.115C677.062 668.927 681.047 661.751 681.047 654.576C681.047 645.718 673.695 640.049 662.18 640.049C655.89 640.049 649.69 640.669 643.755 641.82C641.806 595.138 619.66 558.376 585.822 558.376C563.057 558.376 545.517 577.776 545.517 602.49C545.517 631.368 564.297 656.082 587.682 672.47C577.318 682.657 569.257 694.261 564.297 705.334H501.581C498.48 705.334 496 707.637 496 710.737C496 713.838 498.48 716.229 501.581 716.229ZM558.982 602.49C558.982 585.217 570.675 571.841 585.822 571.841C612.397 571.841 629.581 604.882 630.379 645.452C618.155 649.704 606.993 656.171 597.338 663.877C578.913 651.122 558.982 630.039 558.982 602.49ZM606.993 683.631C608.145 684.163 609.208 684.428 610.271 684.428C613.902 684.428 616.471 681.594 616.471 678.582C616.471 676.367 615.409 674.242 612.84 673.001C611.599 672.381 610.359 671.761 609.031 671.052C615.409 666.535 622.495 662.548 630.113 659.537C629.05 676.633 625.773 692.401 620.724 705.334H578.559C583.164 696.652 590.074 687.529 598.843 679.468C601.501 680.973 604.247 682.303 606.993 683.631ZM572.357 726.416C572.357 723.316 572.889 719.861 574.041 716.229H615.674C607.702 730.934 596.984 739.969 584.759 739.969C576.255 739.969 572.357 734.389 572.357 726.416Z" fill="black"/>
</svg>
