<svg width="1024" height="1024" viewBox="0 0 1024 1024" fill="none" xmlns="http://www.w3.org/2000/svg">
<rect x="0.999991" y="0.999991" width="1021.99" height="1021.99" rx="165.079" fill="black"/>
<rect x="0.999991" y="0.999991" width="1021.99" height="1021.99" rx="165.079" stroke="#FDF5F1" stroke-width="1.99998"/>
<circle cx="511.746" cy="511.732" r="374.247" stroke="url(#paint0_linear_54724_13229)" stroke-width="12.9999"/>
<path d="M511.495 388.109L511.495 636.857" stroke="url(#paint1_linear_54724_13229)" stroke-width="24.8748" stroke-linecap="round"/>
<path d="M586.12 462.733L586.12 562.232" stroke="url(#paint2_linear_54724_13229)" stroke-width="24.8748" stroke-linecap="round"/>
<path d="M660.744 412.982L660.744 611.98" stroke="url(#paint3_linear_54724_13229)" stroke-width="24.8748" stroke-linecap="round"/>
<path d="M735.368 537.357L735.368 487.608" stroke="url(#paint4_linear_54724_13229)" stroke-width="24.8748" stroke-linecap="round"/>
<path d="M436.871 313.484L436.871 711.481" stroke="url(#paint5_linear_54724_13229)" stroke-width="24.8748" stroke-linecap="round"/>
<path d="M362.247 437.857L362.247 587.106" stroke="url(#paint6_linear_54724_13229)" stroke-width="24.8748" stroke-linecap="round"/>
<path d="M287.622 537.357L287.622 487.608" stroke="url(#paint7_linear_54724_13229)" stroke-width="24.8748" stroke-linecap="round"/>
<path d="M886.313 66.671H887.633L930.112 154.99H914.633L907.073 137.71H866.633L859.073 154.99H844.073L886.313 66.671ZM886.913 92.2308L881.633 104.231L872.033 125.59H901.793L892.313 104.351L887.153 92.2308H886.913ZM940.406 154.99V66.791L953.846 66.791V154.99H940.406Z" fill="url(#paint8_linear_54724_13229)"/>
<defs>
<linearGradient id="paint0_linear_54724_13229" x1="511.746" y1="130.985" x2="511.746" y2="892.478" gradientUnits="userSpaceOnUse">
<stop stop-color="#EC2947"/>
<stop offset="1" stop-color="#D2058F"/>
</linearGradient>
<linearGradient id="paint1_linear_54724_13229" x1="536.37" y1="512.483" x2="486.621" y2="512.483" gradientUnits="userSpaceOnUse">
<stop stop-color="#EC2947"/>
<stop offset="1" stop-color="#D2058F"/>
</linearGradient>
<linearGradient id="paint2_linear_54724_13229" x1="610.995" y1="512.482" x2="561.246" y2="512.482" gradientUnits="userSpaceOnUse">
<stop stop-color="#EC2947"/>
<stop offset="1" stop-color="#D2058F"/>
</linearGradient>
<linearGradient id="paint3_linear_54724_13229" x1="685.619" y1="512.481" x2="635.87" y2="512.481" gradientUnits="userSpaceOnUse">
<stop stop-color="#EC2947"/>
<stop offset="1" stop-color="#D2058F"/>
</linearGradient>
<linearGradient id="paint4_linear_54724_13229" x1="760.243" y1="512.483" x2="710.494" y2="512.483" gradientUnits="userSpaceOnUse">
<stop stop-color="#EC2947"/>
<stop offset="1" stop-color="#D2058F"/>
</linearGradient>
<linearGradient id="paint5_linear_54724_13229" x1="461.746" y1="512.483" x2="411.997" y2="512.483" gradientUnits="userSpaceOnUse">
<stop stop-color="#EC2947"/>
<stop offset="1" stop-color="#D2058F"/>
</linearGradient>
<linearGradient id="paint6_linear_54724_13229" x1="387.122" y1="512.482" x2="337.372" y2="512.482" gradientUnits="userSpaceOnUse">
<stop stop-color="#EC2947"/>
<stop offset="1" stop-color="#D2058F"/>
</linearGradient>
<linearGradient id="paint7_linear_54724_13229" x1="312.497" y1="512.483" x2="262.747" y2="512.483" gradientUnits="userSpaceOnUse">
<stop stop-color="#EC2947"/>
<stop offset="1" stop-color="#D2058F"/>
</linearGradient>
<linearGradient id="paint8_linear_54724_13229" x1="905.493" y1="22.9902" x2="905.493" y2="188.99" gradientUnits="userSpaceOnUse">
<stop stop-color="#EC2947"/>
<stop offset="1" stop-color="#D2058F"/>
</linearGradient>
</defs>
</svg>
