<svg width="1024" height="1024" viewBox="0 0 1024 1024" fill="none" xmlns="http://www.w3.org/2000/svg">
<g filter="url(#filter0_i_54732_13594)">
<rect width="1024" height="1024" rx="120" fill="#49C5FF"/>
<g clip-path="url(#clip0_54732_13594)" filter="url(#filter1_i_54732_13594)">
<path d="M180.59 785.696C183.03 787.973 186.875 787.852 189.151 785.413L191.761 782.625C194.038 780.185 193.911 776.334 191.471 774.057L183.357 766.475C180.91 764.191 177.065 764.326 174.788 766.766L172.178 769.56C169.902 772 170.022 775.837 172.469 778.121L180.59 785.696ZM175.271 772.433L177.881 769.638C178.576 768.901 179.732 768.865 180.47 769.553L188.591 777.142C189.329 777.83 189.371 778.994 188.683 779.724L186.073 782.526C185.385 783.263 184.222 783.292 183.491 782.604L175.37 775.022C174.618 774.327 174.583 773.163 175.271 772.433ZM206.614 810.024C209.054 812.301 212.898 812.181 215.182 809.734L217.792 806.946C220.062 804.513 219.941 800.662 217.494 798.385L209.373 790.796C206.933 788.519 203.089 788.647 200.819 791.087L198.209 793.881C195.925 796.328 196.053 800.166 198.493 802.442L206.614 810.024ZM201.294 796.761L203.904 793.959C204.592 793.222 205.756 793.186 206.486 793.874L214.614 801.464C215.352 802.151 215.388 803.322 214.707 804.045L212.096 806.847C211.408 807.585 210.245 807.613 209.508 806.932L201.386 799.343C200.649 798.648 200.613 797.492 201.294 796.761ZM235.403 815.11C232.963 812.833 229.119 812.961 226.849 815.401L224.239 818.195C221.955 820.642 222.083 824.48 224.523 826.756L232.644 834.346C235.091 836.622 238.928 836.502 241.212 834.055L243.822 831.26C246.099 828.827 245.972 824.976 243.532 822.699L235.403 815.11ZM240.737 828.381L238.127 831.175C237.432 831.913 236.269 831.941 235.538 831.26L227.417 823.671C226.679 822.976 226.644 821.82 227.332 821.082L229.942 818.288C230.63 817.55 231.786 817.514 232.524 818.202L240.645 825.792C241.383 826.48 241.425 827.643 240.737 828.381ZM160.007 807.719C162.447 809.996 166.291 809.876 168.568 807.428L171.178 804.641C173.455 802.201 173.334 798.357 170.887 796.073L162.773 788.491C160.326 786.207 156.482 786.342 154.205 788.782L151.595 791.576C149.318 794.016 149.446 797.853 151.886 800.137L160.007 807.719ZM154.688 794.456L157.298 791.661C157.986 790.924 159.142 790.881 159.879 791.576L167.994 799.158C168.731 799.853 168.774 801.01 168.093 801.747L165.483 804.542C164.795 805.279 163.624 805.315 162.894 804.627L154.773 797.045C154.035 796.35 154 795.193 154.688 794.456ZM188.797 812.805C186.357 810.528 182.513 810.663 180.243 813.096L177.633 815.89C175.349 818.337 175.476 822.174 177.916 824.458L186.038 832.04C188.485 834.324 192.322 834.204 194.606 831.757L197.216 828.955C199.493 826.522 199.365 822.678 196.925 820.394L188.797 812.805ZM194.13 826.075L191.52 828.87C190.825 829.608 189.662 829.643 188.931 828.955L180.803 821.366C180.065 820.671 180.03 819.522 180.718 818.784L183.321 815.989C184.016 815.252 185.172 815.209 185.91 815.897L194.031 823.487C194.769 824.182 194.811 825.345 194.13 826.075ZM214.82 837.133C212.38 834.856 208.543 834.991 206.266 837.424L203.656 840.218C201.372 842.665 201.5 846.503 203.94 848.779L212.068 856.369C214.508 858.645 218.352 858.525 220.629 856.085L223.239 853.283C225.516 850.85 225.388 847.006 222.948 844.722L214.82 837.133ZM220.154 850.404L217.544 853.198C216.849 853.936 215.693 853.971 214.955 853.283L206.827 845.694C206.089 844.999 206.053 843.85 206.741 843.112L209.352 840.318C210.04 839.58 211.196 839.537 211.933 840.225L220.047 847.815C220.792 848.503 220.835 849.673 220.154 850.404ZM142.19 810.514C139.743 808.23 135.899 808.358 133.622 810.798L131.012 813.599C128.735 816.039 128.863 819.876 131.31 822.16L139.424 829.742C141.871 832.019 145.708 831.899 147.985 829.459L150.595 826.664C152.879 824.217 152.751 820.373 150.311 818.096L142.19 810.514ZM147.51 823.777L144.9 826.572C144.212 827.31 143.048 827.345 142.311 826.657L134.189 819.075C133.452 818.38 133.416 817.217 134.097 816.486L136.707 813.691C137.395 812.954 138.552 812.918 139.296 813.606L147.41 821.188C148.155 821.884 148.205 823.04 147.51 823.777ZM168.206 834.835C165.766 832.558 161.929 832.686 159.653 835.126L157.042 837.92C154.758 840.367 154.886 844.205 157.326 846.481L165.447 854.071C167.887 856.347 171.731 856.227 174.008 853.78L176.618 850.985C178.895 848.545 178.768 844.701 176.328 842.424L168.206 834.835ZM173.54 848.098L170.93 850.893C170.235 851.631 169.079 851.666 168.341 850.978L160.213 843.389C159.475 842.701 159.44 841.545 160.128 840.807L162.738 838.013C163.426 837.275 164.582 837.239 165.32 837.927L173.434 845.51C174.186 846.198 174.228 847.361 173.54 848.098ZM194.237 859.156C191.797 856.879 187.953 857.007 185.676 859.44L183.066 862.241C180.789 864.688 180.91 868.526 183.349 870.802L191.478 878.392C193.918 880.668 197.762 880.548 200.046 878.101L202.656 875.306C204.926 872.866 204.798 869.022 202.358 866.745L194.237 859.156ZM199.564 872.427L196.953 875.221C196.258 875.959 195.102 875.994 194.365 875.306L186.243 867.717C185.506 867.029 185.463 865.873 186.151 865.135L188.761 862.341C189.449 861.603 190.605 861.568 191.343 862.249L199.464 869.838C200.209 870.526 200.252 871.689 199.564 872.427ZM275.102 657.296C260.873 643.997 238.389 644.841 224.998 659.175L92.64 800.768C79.2347 815.103 79.9085 837.594 94.1366 850.893L162.639 914.927C176.874 928.225 199.358 927.381 212.756 913.033L345.107 771.44C358.505 757.105 357.832 734.621 343.596 721.322L275.102 657.296ZM334.347 761.382L201.996 902.982C194.145 911.387 180.995 911.919 172.703 904.167L104.201 840.133C95.9027 832.381 95.548 819.231 103.407 810.826L235.758 669.233C243.61 660.828 256.753 660.296 265.044 668.048L333.553 732.082C341.845 739.834 342.206 752.984 334.347 761.382ZM341.908 665.006C326.687 650.785 308.892 640.685 288.996 634.996C287.854 634.67 286.656 634.812 285.62 635.393C284.577 635.975 283.826 636.918 283.514 638.039C283.045 639.649 283.521 641.358 284.748 642.507C285.251 642.975 285.875 643.33 286.542 643.522C305.083 648.827 321.673 658.232 335.851 671.488C347.072 681.979 356.073 694.263 362.584 708.009C362.818 708.513 363.151 708.967 363.563 709.35C364.896 710.598 366.832 710.903 368.471 710.116C368.974 709.889 369.435 709.555 369.826 709.13C371.074 707.789 371.379 705.86 370.584 704.207C363.605 689.469 353.952 676.269 341.908 665.006ZM384.749 619.172C357.293 593.511 323.304 576.545 286.45 570.126C284.038 569.707 281.74 571.324 281.322 573.736C281.059 575.211 281.556 576.708 282.655 577.736C283.287 578.325 284.067 578.715 284.911 578.864C320.07 584.985 352.498 601.178 378.691 625.655C403.013 648.38 420.688 677.205 429.816 709.009C430.036 709.782 430.469 710.477 431.05 711.024C432.185 712.08 433.816 712.47 435.292 712.045C436.065 711.832 436.767 711.407 437.32 710.811C438.391 709.662 438.774 708.073 438.349 706.562C428.766 673.212 410.226 642.99 384.749 619.172ZM278.003 512.022C275.577 511.788 273.392 513.568 273.144 516.001C273.002 517.377 273.52 518.724 274.527 519.675C275.243 520.341 276.137 520.746 277.116 520.852C329.914 526.087 378.372 548.067 417.248 584.403C451.577 616.484 475.565 657.487 486.622 702.966C486.821 703.81 487.268 704.569 487.906 705.165C488.991 706.186 490.516 706.583 491.977 706.229C492.821 706.023 493.58 705.583 494.169 704.945C495.19 703.853 495.595 702.328 495.233 700.874C483.771 653.714 458.897 611.193 423.298 577.928C383.004 540.251 332.759 517.469 278.003 512.022ZM253.674 734.316C249.241 739.054 249.497 746.516 254.235 750.942C258.965 755.368 266.427 755.119 270.86 750.381C275.286 745.643 275.031 738.182 270.293 733.756C265.562 729.33 258.1 729.578 253.674 734.316ZM266.966 746.743C264.54 749.339 260.462 749.481 257.866 747.055C255.27 744.622 255.128 740.544 257.561 737.948C259.987 735.352 264.065 735.217 266.661 737.643C269.257 740.061 269.399 744.154 266.966 746.743ZM246.312 728.585C247 729.209 247.858 729.521 248.716 729.521C249.674 729.521 250.632 729.131 251.327 728.38C252.653 726.94 252.561 724.698 251.121 723.365L229.793 703.739C228.353 702.42 226.105 702.519 224.778 703.945C223.452 705.385 223.544 707.633 224.984 708.96L246.312 728.585ZM281.506 753.85C280.066 752.538 277.818 752.63 276.492 754.055C275.165 755.495 275.258 757.744 276.697 759.07L298.025 778.696C298.713 779.32 299.572 779.632 300.43 779.632C301.387 779.632 302.345 779.242 303.04 778.49C304.366 777.05 304.274 774.802 302.834 773.475L281.506 753.85ZM280.116 729.557L299.742 708.229C301.068 706.789 300.976 704.548 299.536 703.214C298.096 701.895 295.848 701.994 294.522 703.42L274.896 724.748C273.57 726.188 273.662 728.436 275.102 729.763C275.79 730.387 276.648 730.699 277.506 730.699C278.456 730.699 279.414 730.309 280.116 729.557ZM244.404 755.133L224.778 776.461C223.459 777.901 223.544 780.15 224.984 781.476C225.672 782.1 226.53 782.412 227.388 782.412C228.346 782.412 229.304 782.022 229.999 781.27L249.624 759.942C250.951 758.503 250.858 756.254 249.419 754.928C247.972 753.616 245.745 753.708 244.404 755.133Z" fill="#FDF5F1"/>
</g>
<g filter="url(#filter2_i_54732_13594)">
<path d="M337.375 300.376H733.556C738.72 300.376 742.916 304.572 742.916 309.736V375.685H872.717C880.57 375.685 887.725 372.458 892.889 367.294C898.053 362.13 901.28 354.975 901.28 347.122V196.503C901.28 188.65 898.053 181.495 892.889 176.331C887.725 171.167 880.57 167.94 872.717 167.94H306.337C298.484 167.94 291.329 171.167 286.165 176.331C280.947 181.495 277.72 188.65 277.72 196.503V347.122C277.72 354.975 280.947 362.13 286.111 367.294C291.275 372.458 298.43 375.685 306.283 375.685H327.962V309.736C328.016 304.572 332.211 300.376 337.375 300.376ZM724.196 319.096H346.735V373.372H724.196V319.096ZM340.818 222.539C335.654 222.539 331.458 218.343 331.458 213.179C331.458 208.015 335.654 203.819 340.818 203.819H845.067C850.231 203.819 854.427 208.015 854.427 213.179C854.427 218.343 850.231 222.539 845.067 222.539H340.818ZM789.285 321.248C796.6 321.248 802.518 327.165 802.518 334.481C802.518 341.796 796.6 347.713 789.285 347.713C781.969 347.713 776.052 341.796 776.052 334.481C776.052 327.165 782.023 321.248 789.285 321.248ZM844.529 321.248C851.845 321.248 857.762 327.165 857.762 334.481C857.762 341.796 851.845 347.713 844.529 347.713C837.214 347.713 831.297 341.796 831.297 334.481C831.297 327.165 837.214 321.248 844.529 321.248ZM306.337 149.166H872.717C885.734 149.166 897.569 154.491 906.122 163.044C914.675 171.597 920 183.432 920 196.449V347.122C920 360.139 914.675 371.974 906.122 380.527C897.569 389.08 885.734 394.405 872.717 394.405H306.337C293.319 394.405 281.485 389.08 272.932 380.527C264.325 371.974 259 360.139 259 347.122V196.503C259 183.486 264.325 171.651 272.878 163.098C281.485 154.491 293.319 149.166 306.337 149.166ZM340.818 266.218C335.654 266.218 331.458 262.022 331.458 256.858C331.458 251.694 335.654 247.498 340.818 247.498H845.067C850.231 247.498 854.427 251.694 854.427 256.858C854.427 262.022 850.231 266.218 845.067 266.218H340.818ZM452.706 425.497C449.855 422.754 450.985 419.042 455.288 417.213C459.592 415.384 465.347 416.137 468.252 418.827C488.586 438.192 478.795 453.9 469.382 468.961C462.281 480.365 455.45 491.285 468.037 502.259C471.103 504.948 470.189 508.66 466.047 510.597C461.905 512.533 456.041 511.995 452.975 509.306C434.309 493.007 442.97 479.074 452.061 464.55C459.645 452.34 467.553 439.645 452.706 425.497ZM531.458 425.497C528.607 422.754 529.737 419.042 534.04 417.213C538.344 415.384 544.099 416.137 547.004 418.827C567.338 438.192 557.547 453.9 548.134 468.961C541.033 480.365 534.202 491.285 546.789 502.259C549.855 504.948 548.941 508.66 544.799 510.597C540.657 512.533 534.793 511.995 531.727 509.306C513.061 493.007 521.722 479.074 530.813 464.55C538.397 452.34 546.359 439.645 531.458 425.497ZM610.21 425.497C607.359 422.754 608.489 419.042 612.792 417.213C617.095 415.384 622.851 416.137 625.756 418.827C646.09 438.192 636.299 453.9 626.886 468.961C619.785 480.365 612.953 491.285 625.541 502.259C628.607 504.948 627.693 508.66 623.551 510.597C619.409 512.533 613.545 511.995 610.479 509.306C591.813 493.007 600.527 479.074 609.565 464.55C617.149 452.34 625.111 439.645 610.21 425.497Z" fill="#FDF5F1"/>
</g>
</g>
<defs>
<filter id="filter0_i_54732_13594" x="0" y="0" width="1024" height="1028" filterUnits="userSpaceOnUse" color-interpolation-filters="sRGB">
<feFlood flood-opacity="0" result="BackgroundImageFix"/>
<feBlend mode="normal" in="SourceGraphic" in2="BackgroundImageFix" result="shape"/>
<feColorMatrix in="SourceAlpha" type="matrix" values="0 0 0 0 0 0 0 0 0 0 0 0 0 0 0 0 0 0 127 0" result="hardAlpha"/>
<feOffset dy="4"/>
<feGaussianBlur stdDeviation="2"/>
<feComposite in2="hardAlpha" operator="arithmetic" k2="-1" k3="1"/>
<feColorMatrix type="matrix" values="0 0 0 0 0 0 0 0 0 0 0 0 0 0 0 0 0 0 0.25 0"/>
<feBlend mode="normal" in2="shape" result="effect1_innerShadow_54732_13594"/>
</filter>
<filter id="filter1_i_54732_13594" x="83" y="512" width="412.373" height="416.374" filterUnits="userSpaceOnUse" color-interpolation-filters="sRGB">
<feFlood flood-opacity="0" result="BackgroundImageFix"/>
<feBlend mode="normal" in="SourceGraphic" in2="BackgroundImageFix" result="shape"/>
<feColorMatrix in="SourceAlpha" type="matrix" values="0 0 0 0 0 0 0 0 0 0 0 0 0 0 0 0 0 0 127 0" result="hardAlpha"/>
<feOffset dy="4"/>
<feGaussianBlur stdDeviation="2"/>
<feComposite in2="hardAlpha" operator="arithmetic" k2="-1" k3="1"/>
<feColorMatrix type="matrix" values="0 0 0 0 0 0 0 0 0 0 0 0 0 0 0 0 0 0 0.25 0"/>
<feBlend mode="normal" in2="shape" result="effect1_innerShadow_54732_13594"/>
</filter>
<filter id="filter2_i_54732_13594" x="259" y="0" width="661" height="665" filterUnits="userSpaceOnUse" color-interpolation-filters="sRGB">
<feFlood flood-opacity="0" result="BackgroundImageFix"/>
<feBlend mode="normal" in="SourceGraphic" in2="BackgroundImageFix" result="shape"/>
<feColorMatrix in="SourceAlpha" type="matrix" values="0 0 0 0 0 0 0 0 0 0 0 0 0 0 0 0 0 0 127 0" result="hardAlpha"/>
<feOffset dy="4"/>
<feGaussianBlur stdDeviation="2"/>
<feComposite in2="hardAlpha" operator="arithmetic" k2="-1" k3="1"/>
<feColorMatrix type="matrix" values="0 0 0 0 0 0 0 0 0 0 0 0 0 0 0 0 0 0 0.25 0"/>
<feBlend mode="normal" in2="shape" result="effect1_innerShadow_54732_13594"/>
</filter>
<clipPath id="clip0_54732_13594">
<rect width="412.374" height="412.374" fill="white" transform="translate(83 512)"/>
</clipPath>
</defs>
</svg>
