<svg width="1024" height="1024" viewBox="0 0 1024 1024" fill="none" xmlns="http://www.w3.org/2000/svg">
<rect width="1024" height="1024" rx="120" fill="#FBDEFA"/>
<path d="M550.361 299.466C500.198 299.466 459.509 340.134 459.509 390.341V499.276H489.793V390.341C489.793 356.929 516.972 329.75 550.361 329.75C583.773 329.75 610.975 356.929 610.975 390.341V714.083H641.236V390.341C641.236 340.132 600.568 299.466 550.361 299.466Z" fill="#BEC1C4"/>
<path d="M550.361 148C416.534 148 308.043 256.491 308.043 390.341V499.276H338.327V390.341C338.327 361.698 343.94 333.922 354.988 307.808C365.661 282.56 380.969 259.886 400.449 240.406C419.929 220.904 442.603 205.618 467.851 194.945C493.986 183.897 521.741 178.284 550.361 178.284C579.027 178.284 606.78 183.897 632.894 194.945C658.142 205.618 680.816 220.903 700.318 240.406C719.798 259.886 735.083 282.56 745.778 307.808C756.826 333.922 762.418 361.698 762.418 390.341V466.062H792.725V390.341C792.725 256.491 684.212 148 550.361 148Z" fill="#BEC1C4"/>
<path d="M520.077 844.693C520.077 861.421 506.521 875 489.793 875H186.884C170.156 875 156.577 861.423 156.577 844.693V481.216C156.577 464.488 170.154 450.909 186.884 450.909H489.793C506.521 450.909 520.077 464.486 520.077 481.216V844.693Z" fill="#48CFAD"/>
<path d="M489.793 450.909H459.509V875H490.037C506.654 874.867 520.077 861.377 520.077 844.693V481.216C520.077 464.488 506.521 450.909 489.793 450.909Z" fill="#37BC9B"/>
<path d="M626.105 662.966C575.232 662.966 562.476 776.271 562.476 811.37C562.476 846.513 590.962 875 626.105 875C661.248 875 689.735 846.513 689.735 811.37C689.735 776.271 676.978 662.966 626.105 662.966Z" fill="#434A54"/>
<path d="M777.549 617.528C735.794 617.528 701.85 583.538 701.85 541.784C701.85 500.03 735.794 466.062 777.549 466.062C819.325 466.062 853.293 500.03 853.293 541.784C853.293 583.538 819.325 617.528 777.549 617.528Z" fill="#BEC1C4"/>
<path d="M777.549 450.909C727.363 450.909 686.674 491.598 686.674 541.784C686.674 591.97 727.363 632.659 777.549 632.659C827.756 632.659 868.424 591.97 868.424 541.784C868.424 491.598 827.756 450.909 777.549 450.909ZM777.549 602.398C744.158 602.398 716.981 575.198 716.981 541.784C716.981 508.393 744.159 481.216 777.549 481.216C810.961 481.216 838.162 508.395 838.162 541.784C838.162 575.196 810.961 602.398 777.549 602.398Z" fill="#575B62"/>
<path d="M814.134 520.374C814.112 512.009 807.346 505.221 798.981 505.221C794.809 505.221 791.017 506.929 788.288 509.658L766.855 531.09C764.103 533.819 762.418 537.613 762.418 541.784C762.418 550.17 769.207 556.96 777.549 556.96C781.742 556.96 785.536 555.252 788.286 552.523L809.696 531.09C812.426 528.338 814.134 524.546 814.134 520.374Z" fill="#656D78"/>
<path d="M364.64 624.25C349.931 617.128 334.089 627.765 323.195 640.5C312.279 627.765 296.438 617.128 281.751 624.25C263.047 634.39 258.359 657.53 267.501 681.757C279.127 713.927 317.071 739.026 323.195 741C329.318 739.025 369.897 713.927 381.501 681.757C390.688 657.53 383.321 634.39 364.64 624.25Z" fill="#F5F7FA"/>
<path d="M338.33 420.625H308.046V450.909H338.33V420.625Z" fill="#575B62"/>
<path d="M489.793 420.625H459.509V450.909H489.793V420.625Z" fill="#575B62"/>
</svg>
