<svg width="1024" height="1024" viewBox="0 0 1024 1024" fill="none" xmlns="http://www.w3.org/2000/svg">
<g clip-path="url(#clip0_54770_1069)">
<rect width="1024" height="1024" rx="120" fill="#FBDEFA"/>
<path d="M1006.34 494.344H988.688H801.79L784.134 476.688L890.93 369.928C908.426 352.45 918.066 329.198 918.066 304.462C918.066 279.726 908.426 256.476 890.93 238.978C854.808 202.89 796.052 202.856 759.928 238.978L759.168 239.738L758.408 238.978C722.304 202.89 663.53 202.856 627.406 238.978C609.91 256.474 600.27 279.726 600.27 304.462C600.27 329.196 609.91 352.448 627.406 369.928L734.202 476.688L716.546 494.344H544.284C536.992 473.794 517.36 459.034 494.338 459.034C471.316 459.034 451.684 473.794 444.392 494.344H406.062C397.428 494.344 390.066 500.594 388.654 509.104L372.094 608.414L317.61 227.01C316.374 218.376 309.012 211.932 300.272 211.862C290.932 211.492 284.064 218.13 282.706 226.764L239.928 497.736C236.962 495.582 233.342 494.346 229.512 494.346H173.532C166.24 473.796 146.608 459.036 123.586 459.036C100.564 459.036 80.932 473.796 73.64 494.346H35.31H17.656H0V529.656H17.656H35.312H88.278C98.024 529.656 105.934 521.764 105.934 512C105.934 502.254 113.862 494.344 123.59 494.344C133.318 494.344 141.246 502.254 141.246 512C141.246 521.764 149.156 529.656 158.902 529.656H216.794L230.424 570.546C233.002 578.28 240.47 583.116 248.626 582.57C256.73 581.9 263.332 575.756 264.604 567.722L299.262 348.232L353.286 726.352C354.504 734.968 361.848 741.412 370.552 741.5C370.622 741.5 370.694 741.5 370.764 741.5C379.38 741.5 386.76 735.268 388.172 726.74L421.028 529.656H459.04C468.786 529.656 476.696 521.764 476.696 512C476.696 502.254 484.624 494.344 494.352 494.344C504.08 494.344 512 502.254 512 512C512 521.764 519.91 529.656 529.656 529.656H723.862C728.54 529.656 733.042 527.802 736.344 524.484L759.172 501.656L782 524.482C785.302 527.802 789.804 529.654 794.482 529.654H988.688H1006.34H1024V494.344H1006.34ZM764.346 446.552L759.174 451.724L754 446.552L652.376 344.964C641.536 334.142 635.586 319.752 635.586 304.464C635.586 289.156 641.554 274.768 652.376 263.946C663.552 252.788 678.224 247.208 692.912 247.208C707.6 247.208 722.272 252.786 733.43 263.946L746.672 277.206C753.292 283.826 765.034 283.826 771.654 277.206L784.896 263.946C807.248 241.63 843.618 241.63 865.968 263.946C876.808 274.768 882.758 289.176 882.758 304.464C882.758 319.754 876.808 334.142 865.968 344.964L764.346 446.552Z" fill="black"/>
</g>
<defs>
<clipPath id="clip0_54770_1069">
<rect width="1024" height="1024" rx="120" fill="white"/>
</clipPath>
</defs>
</svg>
