<svg width="1024" height="1024" viewBox="0 0 1024 1024" fill="none" xmlns="http://www.w3.org/2000/svg">
<rect width="1024" height="1024" rx="120" fill="#FBDEFA"/>
<g clip-path="url(#clip0_54761_532)">
<path d="M365.314 239.151L365.356 239.192C365.419 238.899 365.523 238.649 365.649 238.398C369.557 230.58 399.2 233.465 431.871 244.836C463.666 255.915 486.598 270.924 484.174 278.952L449.556 517.425L312.009 502.291L365.314 239.151Z" fill="#DA4453"/>
<path d="M331.241 332.09H331.219C331.178 331.755 331.136 331.462 331.052 331.128C328.481 321.47 301.598 320.132 270.994 328.243C241.185 336.104 218.859 349.984 220.051 359.641L222.226 641.927L347.19 645.9L331.241 332.09Z" fill="#CC374D"/>
<path d="M517.474 287.898C515.865 288.526 518.959 287.062 517.474 287.898V287.898Z" fill="#ED5564"/>
<path d="M516.157 428.874L561.35 384.894C561.35 384.894 606.545 354.666 579.474 320.675C561.141 297.597 534.511 268.54 511.14 277.823C352.103 341.454 293.467 466.67 293.467 466.67C293.467 466.67 208.953 382.845 198.104 415.831C41.345 892.066 503.469 957.285 628.036 902.978C706.99 868.527 689.178 515.418 516.157 428.874Z" fill="#ED5564"/>
<path d="M517.474 287.898C515.865 288.526 518.959 287.062 517.474 287.898V287.898Z" fill="#ED5564"/>
<g opacity="0.1">
<path d="M219.383 410.521C209.077 406.549 200.987 407.051 198.103 415.831C41.3449 892.066 503.469 957.285 628.036 902.978C638.005 898.629 646.43 889.181 653.204 875.844C526.066 926.682 86.2671 861.546 219.383 410.521Z" fill="white"/>
</g>
<path d="M517.474 287.898C515.865 288.526 518.959 287.062 517.474 287.898V287.898Z" fill="#ED5564"/>
<path d="M516.157 428.874L519.543 425.571C509.906 433.64 493.517 449.36 478.738 473.149C458.418 505.884 437.264 560.862 451.98 636.952C453.296 643.767 459.275 648.533 465.965 648.533C466.864 648.533 467.783 648.45 468.682 648.24C476.438 646.776 481.496 639.292 479.991 631.557C469.685 578.212 477.19 530.382 502.318 489.286C517.871 463.867 535.785 448.898 541.743 444.341C533.611 438.532 525.105 433.348 516.157 428.874Z" fill="#DA4453"/>
</g>
<g clip-path="url(#clip1_54761_532)">
<path d="M884.755 369.294C885.039 380.697 882.492 389.614 876.736 397.418C870.979 405.221 861.262 410.252 852.956 414.232C841.921 419.519 814.286 422.591 800.954 422.591C787.622 422.591 759.836 418.962 748.799 413.676C740.494 409.699 730.928 405.22 725.171 397.418C719.414 389.616 716.869 380.699 717.153 369.294" fill="#BDBDBD"/>
<path d="M881.346 369.295C881.505 377.094 880.322 384.846 876.405 391.695C872.459 398.596 866.33 403.256 859.487 407.077C857.718 408.064 855.917 408.993 854.104 409.893C853.307 410.286 852.508 410.675 851.707 411.061L850.953 411.42C850.76 411.51 850.565 411.598 850.369 411.683C850.678 411.555 850.641 411.57 850.259 411.727C847.677 412.728 845.03 413.551 842.336 414.19C835.653 415.803 828.874 416.989 822.04 417.741C815.627 418.497 809.167 419.055 802.707 419.161C796.767 419.195 790.83 418.857 784.933 418.149C777.981 417.415 771.073 416.313 764.239 414.845C758.512 413.68 752.944 411.838 747.653 409.356C740.046 405.672 732.065 401.56 727.18 394.386C722.078 386.892 720.373 378.25 720.557 369.295C720.646 364.906 713.828 364.907 713.739 369.295C713.327 378.104 715.264 386.865 719.352 394.68C723.537 402.216 729.955 407.594 737.405 411.748C743.346 415.218 749.682 417.962 756.276 419.921C763.452 421.812 770.747 423.219 778.112 424.133C784.985 425.129 791.908 425.745 798.849 425.979C805.107 426.052 811.363 425.74 817.583 425.046C825.315 424.333 833.001 423.18 840.603 421.593C846.997 420.232 853.183 418.035 859.004 415.059C867.645 410.665 875.859 405.24 881.196 396.951C886.504 388.713 888.362 378.997 888.164 369.306C888.075 364.926 881.255 364.91 881.346 369.306V369.295Z" fill="#211715"/>
<path d="M709.151 156.583C709.207 144.851 713.906 133.618 722.222 125.341C730.538 117.065 741.793 112.419 753.525 112.419H849.293C873.744 112.419 892.089 132.236 893.675 156.635C897.736 219.089 895.472 309.643 893.645 347.296C893.093 358.69 891.143 367.615 884.776 375.419C878.41 383.223 867.661 388.254 858.472 392.233C846.267 397.52 815.699 400.592 800.947 400.592C786.195 400.592 755.465 396.963 743.26 391.677C734.071 387.7 723.491 383.221 717.125 375.419C710.759 367.617 708.532 358.701 708.255 347.296C707.33 308.907 705.661 217.003 709.151 156.583Z" fill="white"/>
<path d="M712.56 156.583C712.61 145.753 716.949 135.383 724.628 127.745C732.306 120.107 742.697 115.822 753.528 115.828C755.782 115.817 758.038 115.828 760.292 115.828H834.844C842.571 115.828 850.957 115.077 858.526 116.89C872.621 120.268 883.585 131.378 888.006 145.028C890.384 152.371 890.512 160.02 890.904 167.66C891.331 175.987 891.658 184.32 891.884 192.659C892.878 227.208 892.687 261.796 891.929 296.347C891.628 310.077 891.209 323.801 890.671 337.519C890.64 343.924 890.179 350.319 889.292 356.662C888.128 364.602 884.214 371.882 878.233 377.233C874.859 380.032 871.172 382.431 867.246 384.382C865.422 385.336 863.569 386.228 861.707 387.093C860.713 387.551 859.716 387.999 858.715 388.44C858.225 388.656 857.734 388.866 857.245 389.085C857.03 389.205 856.801 389.301 856.563 389.369C850.273 391.569 843.778 393.134 837.175 394.04C823.511 396.437 809.639 397.453 795.771 397.071C780.889 396.626 766.099 394.554 751.667 390.893C744.748 388.95 738.095 386.162 731.857 382.593C724.48 378.572 718.285 373.205 714.946 365.326C712.017 358.419 711.754 350.962 711.583 343.593C711.446 337.738 711.322 331.882 711.209 326.025C710.925 311.29 710.717 296.554 710.584 281.816C710.283 247.614 710.323 213.384 711.529 179.198C711.794 171.656 712.138 164.118 712.56 156.583C712.813 152.2 705.993 152.214 705.742 156.583C703.763 190.98 703.546 225.484 703.638 259.93C703.717 288.954 704.119 317.977 704.846 346.999C705.067 355.794 706.408 364.691 710.899 372.401C715.626 380.527 723.139 385.926 731.425 390.036C737.932 393.424 744.791 396.088 751.879 397.982C759.561 399.791 767.342 401.155 775.181 402.065C782.657 403.016 790.188 403.733 797.723 403.95C804.251 404.069 810.782 403.824 817.283 403.217C825.504 402.54 833.721 401.56 841.846 400.121C848.474 399.102 854.959 397.3 861.163 394.753C869.443 391.136 877.856 387.083 884.457 380.768C890.654 374.597 894.69 366.587 895.962 357.934C896.898 351.166 897.409 344.346 897.492 337.514C897.757 330.996 897.987 324.476 898.183 317.955C899.226 284.008 899.642 250.014 899.188 216.046C898.955 198.554 898.486 181.06 897.507 163.592C897.046 155.354 896.418 147.342 893.265 139.621C890.395 132.407 885.904 125.95 880.139 120.75C874.37 115.6 867.404 111.975 859.876 110.208C855.579 109.319 851.195 108.917 846.808 109.01H758.148C755.121 109.01 752.079 108.931 749.058 109.232C737.245 110.332 726.265 115.791 718.258 124.544C710.25 133.298 705.788 144.719 705.742 156.583C705.722 160.97 712.54 160.976 712.56 156.583Z" fill="#211715"/>
<path d="M852.466 162.228H747.568C738.144 162.228 730.504 169.868 730.504 179.292V275.598C730.504 285.022 738.144 292.662 747.568 292.662H852.466C861.891 292.662 869.531 285.022 869.531 275.598V179.292C869.531 169.868 861.891 162.228 852.466 162.228Z" fill="#A2D2EE"/>
<path d="M747.568 296.071H846.901C848.654 296.071 850.407 296.071 852.157 296.071C855.01 296.094 857.837 295.529 860.462 294.412C863.088 293.295 865.455 291.649 867.417 289.577C871.035 285.612 873.008 280.417 872.935 275.05C872.935 272.975 872.935 270.898 872.935 268.823V184.093C872.935 182.531 872.952 180.968 872.935 179.406C872.919 175.975 872.057 172.602 870.425 169.584C868.793 166.566 866.442 163.997 863.581 162.106C857.915 158.36 851.492 158.822 845.082 158.822H757.629C752.723 158.822 747.154 158.244 742.354 159.492C738.4 160.563 734.854 162.786 732.168 165.879C729.481 168.971 727.775 172.793 727.267 176.858C727.1 178.619 727.042 180.389 727.095 182.157V266.121C727.095 272.183 726.457 278.629 729.041 284.282C730.709 287.79 733.332 290.756 736.609 292.841C739.886 294.926 743.684 296.046 747.568 296.071C751.956 296.134 751.959 289.316 747.568 289.254C744.291 289.223 741.13 288.031 738.65 285.888C736.17 283.746 734.53 280.792 734.024 277.554C733.874 275.952 733.837 274.341 733.913 272.733V181.775C733.802 179.803 733.945 177.825 734.339 175.89C735.116 172.965 736.833 170.376 739.226 168.523C741.62 166.67 744.556 165.656 747.583 165.637C748.807 165.622 750.034 165.637 751.259 165.637H851.719C853.621 165.576 855.515 165.904 857.285 166.602C859.055 167.3 860.664 168.352 862.012 169.694C863.361 171.036 864.421 172.639 865.128 174.406C865.834 176.173 866.172 178.065 866.12 179.967C866.13 185.79 866.12 191.614 866.12 197.437V258.85C866.12 264.305 866.14 269.759 866.12 275.213C866.163 277.425 865.678 279.616 864.704 281.603C863.731 283.59 862.297 285.317 860.523 286.639C857.829 288.481 854.609 289.398 851.348 289.251H747.568C743.181 289.254 743.174 296.071 747.568 296.071Z" fill="#211715"/>
<path d="M772.378 187.448L773.989 187.578C773.705 187.312 773.416 187.053 773.122 186.8C772.715 186.453 772.291 186.125 771.865 185.806C770.975 185.108 770.018 184.501 769.007 183.992C766.871 182.902 764.503 182.344 762.104 182.367C760.117 182.424 758.177 182.993 756.474 184.019C754.771 185.045 753.361 186.494 752.382 188.225C751.389 190.042 750.807 192.056 750.677 194.123C750.547 196.19 750.873 198.261 751.63 200.188C753.335 204.54 756.549 207.449 760.245 210.148C761.95 211.395 763.67 212.635 765.432 213.801C767.213 215.159 769.181 216.251 771.274 217.045C775.393 218.219 779.731 214.504 782.89 212.273C786.654 209.614 790.702 206.995 793.141 202.967C794.226 201.223 794.946 199.277 795.256 197.247C795.566 195.217 795.46 193.145 794.945 191.158C794.393 189.058 793.275 187.15 791.713 185.642C790.151 184.135 788.205 183.085 786.087 182.607C780.585 181.539 775.541 184.279 771.69 187.984C768.523 191.031 773.348 195.849 776.511 192.805C778.558 190.837 781.251 188.847 784.275 189.18C785.295 189.342 786.241 189.813 786.984 190.531C787.727 191.249 788.232 192.177 788.428 193.192C790.065 199.538 783.346 203.657 779 206.702C777.817 207.532 776.616 208.334 775.382 209.084C774.744 209.565 774.05 209.965 773.315 210.277C772.791 210.419 772.771 210.277 771.976 209.824C769.302 208.237 766.713 206.509 764.221 204.648C760.272 201.798 754.96 196.501 758.511 191.267C760.141 188.862 763.069 188.778 765.57 189.878C767.047 190.647 768.4 191.633 769.585 192.802C770.407 193.59 771.474 194.073 772.608 194.17C773.743 194.267 774.876 193.972 775.82 193.335C776.581 192.862 777.133 192.114 777.36 191.246C777.588 190.379 777.474 189.457 777.042 188.671C776.581 187.895 775.833 187.333 774.961 187.104C774.088 186.875 773.16 186.999 772.378 187.448Z" fill="#211715"/>
<path d="M774.098 190.388C773.818 190.664 773.44 190.818 773.047 190.818C772.653 190.818 772.276 190.664 771.996 190.388C770.76 189.128 769.349 188.051 767.808 187.191C765.715 186.015 763.295 185.557 760.917 185.887C759.213 186.235 757.657 187.099 756.461 188.361C755.265 189.624 754.486 191.224 754.231 192.945C753.92 195.039 754.139 197.177 754.868 199.164C755.596 201.152 756.811 202.925 758.401 204.322C759.861 205.641 761.408 206.86 763.033 207.969C765.76 210.026 768.632 211.882 771.628 213.523C772.065 213.758 772.553 213.88 773.048 213.88C773.544 213.88 774.032 213.758 774.469 213.523C777.465 211.883 780.338 210.027 783.065 207.969C784.69 206.861 786.238 205.642 787.697 204.322C789.287 202.925 790.503 201.152 791.231 199.165C791.96 197.177 792.178 195.039 791.867 192.945C791.612 191.224 790.834 189.624 789.638 188.361C788.442 187.099 786.886 186.235 785.182 185.887C782.804 185.557 780.384 186.015 778.291 187.191C776.748 188.051 775.336 189.128 774.098 190.388Z" fill="#211715"/>
<path d="M814.203 225.998H844.807C849.194 225.998 849.202 219.18 844.807 219.18H814.203C809.816 219.18 809.809 225.998 814.203 225.998Z" fill="#211715"/>
<path d="M814.203 246.56H844.807C849.194 246.56 849.202 239.742 844.807 239.742H814.203C809.816 239.742 809.809 246.56 814.203 246.56Z" fill="#211715"/>
<path d="M814.203 267.121H844.807C849.194 267.121 849.202 260.303 844.807 260.303H814.203C809.816 260.303 809.809 267.121 814.203 267.121Z" fill="#211715"/>
<path d="M801.001 321.831C787.476 321.831 780.002 330.981 780.002 339.501C780.002 349.034 787.753 357.965 801.001 357.965C815.298 357.965 822.045 349.528 822.045 340.057C822.045 331.473 814.19 321.831 801.001 321.831Z" fill="#BDBDBD"/>
<path d="M801.001 318.422C791.011 318.52 781.258 323.467 777.693 333.231C774.536 341.888 778.416 351.537 785.657 356.789C793.856 362.736 806.652 362.934 815.343 357.926C819.018 355.759 821.927 352.501 823.663 348.604C825.399 344.707 825.876 340.365 825.029 336.184C822.772 325.061 811.731 318.54 801 318.429C796.611 318.384 796.608 325.202 801 325.247C808.041 325.321 815.18 328.977 817.701 335.408C818.757 338.065 818.941 340.989 818.228 343.757C817.515 346.526 815.942 348.996 813.734 350.812C808.279 355.301 798.402 355.85 792.002 352.673C788.98 351.235 786.501 348.862 784.933 345.905C783.631 343.354 783.147 340.463 783.546 337.627C785.133 329.608 792.856 325.328 800.994 325.247C805.386 325.197 805.398 318.379 801.001 318.422Z" fill="#211715"/>
<g clip-path="url(#clip2_54761_532)">
<path d="M864.312 192.495H852.011L847.994 187.305C847.606 186.805 846.61 186.585 845.75 186.815C845.294 186.935 844.957 187.175 844.822 187.455L842.375 192.685L839.185 181.785C839.05 181.295 838.342 180.975 837.498 180.955C836.671 180.965 835.962 181.335 835.861 181.825L833.398 192.655L830.309 172.405C830.225 171.885 829.499 171.495 828.622 171.495H828.605C827.727 171.505 827.002 171.905 826.934 172.435L824.066 198.945L821.382 177.355C821.315 176.835 820.589 176.435 819.712 176.425C818.834 176.425 818.109 176.815 818.007 177.335L814.987 196.085L812.422 183.965C812.304 183.415 811.46 183.025 810.549 183.095C809.823 183.145 809.233 183.475 809.098 183.895L805.891 193.525L803.461 188.995C803.174 188.465 802.229 188.175 801.335 188.345C800.947 188.415 800.626 188.565 800.424 188.765L796.458 192.495H786.687C785.759 192.495 785 192.945 785 193.495C785 194.045 785.759 194.495 786.688 194.495H797.386C797.96 194.495 798.5 194.315 798.821 194.025L801.352 191.645L804.71 197.805C804.997 198.335 805.942 198.625 806.82 198.455C807.41 198.345 807.849 198.055 807.967 197.685L810.397 190.365L813.553 205.335C813.654 205.835 814.38 206.215 815.223 206.215H815.24C816.101 206.205 816.81 205.815 816.894 205.315L819.459 189.355L822.463 213.575C822.53 214.095 823.272 214.505 824.15 214.505C825.044 214.505 825.77 214.095 825.821 213.565L828.875 185.415L831.406 201.655C831.491 202.165 832.199 202.555 833.06 202.565C833.938 202.525 834.646 202.205 834.764 201.695L837.768 188.525L840.367 197.395C840.502 197.855 841.16 198.195 841.953 198.225C842.746 198.255 843.455 197.945 843.658 197.495L846.881 190.625L849.412 193.905C849.682 194.265 850.289 194.485 850.948 194.485H864.313C865.241 194.485 866 194.035 866 193.485C866 192.935 865.241 192.495 864.312 192.495Z" fill="black"/>
</g>
</g>
<defs>
<clipPath id="clip0_54761_532">
<rect width="685" height="685" fill="white" transform="translate(77 234)"/>
</clipPath>
<clipPath id="clip1_54761_532">
<rect width="317" height="317" fill="white" transform="translate(643 109)"/>
</clipPath>
<clipPath id="clip2_54761_532">
<rect width="81" height="48" fill="white" transform="translate(785 169)"/>
</clipPath>
</defs>
</svg>
