<svg width="1024" height="1024" viewBox="0 0 1024 1024" fill="none" xmlns="http://www.w3.org/2000/svg">
<rect width="1024" height="1024" rx="120" fill="#EBF8FF"/>
<g clip-path="url(#clip0_54770_1050)">
<path d="M899.383 252.849C926.819 280.285 926.819 324.766 899.385 352.202L882.409 369.179C901.293 392.153 900.614 416.504 883.056 434.113L833.861 483.308C829.057 488.107 821.272 488.103 816.473 483.3C811.674 478.496 811.678 470.711 816.482 465.912L865.643 416.751C873.595 408.776 874.514 398.875 864.988 386.612L691.316 560.281C686.428 565.169 680.264 568.586 673.528 570.14L573.846 593.143C564.993 595.186 557.059 587.252 559.102 578.399L582.106 478.717C583.66 471.981 587.076 465.818 591.964 460.93L800.033 252.851C827.467 225.415 871.947 225.414 899.383 252.849Z" fill="black"/>
</g>
<path d="M111.782 680.98H214.727C212.708 688.744 211.621 696.352 211.621 703.339C211.621 728.338 225.596 746.194 254.942 746.194C290.654 746.194 319.534 721.04 338.167 680.98H553.219C558.653 680.98 563 676.788 563 671.353C563 665.919 558.653 661.882 553.219 661.882H345.931C354.626 636.418 359.905 606.606 360.992 574.309C370.775 572.136 381.021 571.048 391.581 571.048C397.016 571.048 400.12 573.378 400.12 577.415C400.12 590.923 392.822 601.482 392.822 614.99C392.822 626.791 401.519 633.933 412.852 633.933C444.372 633.933 482.414 580.054 494.99 580.054C506.48 580.054 492.195 628.499 531.324 628.499C537.691 628.499 545.921 626.791 552.287 622.754C556.013 620.114 558.653 616.387 558.653 611.574C558.653 605.674 554.926 600.861 548.716 600.861C543.281 600.861 538.779 605.363 533.499 605.363C516.729 605.363 532.721 553.813 501.824 553.813C474.807 553.813 432.571 606.295 421.858 606.295C420.462 606.295 419.375 605.519 419.375 603.656C419.375 598.066 426.36 585.489 426.36 572.912C426.36 557.385 413.472 547.447 393.289 547.447C382.264 547.447 371.395 548.534 360.992 550.553C357.576 468.725 318.758 404.287 259.445 404.287C219.54 404.287 188.796 438.292 188.796 481.612C188.796 532.231 221.714 575.551 262.705 604.276C244.539 622.133 230.409 642.473 221.714 661.882H111.782C106.347 661.882 102 665.919 102 671.353C102 676.788 106.347 680.98 111.782 680.98ZM212.398 481.612C212.398 451.335 232.894 427.889 259.445 427.889C306.026 427.889 336.149 485.805 337.546 556.919C316.119 564.372 296.554 575.707 279.63 589.215C247.334 566.856 212.398 529.902 212.398 481.612ZM296.554 623.841C298.573 624.773 300.437 625.238 302.3 625.238C308.665 625.238 313.168 620.27 313.168 614.99C313.168 611.108 311.306 607.382 306.803 605.208C304.628 604.122 302.455 603.034 300.126 601.792C311.306 593.873 323.727 586.886 337.08 581.607C335.217 611.574 329.472 639.213 320.622 661.882H246.713C254.786 646.665 266.897 630.673 282.269 616.543C286.928 619.182 291.741 621.512 296.554 623.841ZM235.843 698.836C235.843 693.402 236.775 687.347 238.794 680.98H311.771C297.797 706.756 279.009 722.593 257.582 722.593C242.676 722.593 235.843 712.811 235.843 698.836Z" fill="black"/>
<defs>
<clipPath id="clip0_54770_1050">
<rect width="459" height="459" fill="white" transform="translate(526 200)"/>
</clipPath>
</defs>
</svg>
