<svg width="1024" height="1024" viewBox="0 0 1024 1024" fill="none" xmlns="http://www.w3.org/2000/svg">
<g clip-path="url(#clip0_54770_697)">
<rect width="1024" height="1024" rx="120" fill="#FFE2FE"/>
<path d="M143.8 500.4H300.3L358.7 380.1L451.6 743.2L494.7 497H543.6L577.6 583.1L621.2 401.4L680.7 647.9L719.3 493.8H911.2C911.2 493.8 951.7 326.1 862.3 249.7C754.6 157.6 657.8 193.1 564 287.7L513.9 341.2L468.5 294.5C468.5 294.5 389.1 190 292.6 204.6C203.5 218.1 87.6001 325.1 143.8 500.4Z" fill="#F9C0C0"/>
<path d="M513.699 903.1L509.399 900.6C509.099 900.4 470.199 878.2 413.599 837C361.399 799.1 282.999 736.7 205.599 655.2C170.399 618.2 143.299 579.3 124.899 539.7L138.499 533.4C156.199 571.5 182.399 609.1 216.399 644.9C351.299 786.9 490.899 872.3 513.599 885.7C536.499 872.1 676.099 786.7 810.799 644.9C847.499 606.2 875.099 565.7 892.699 524.4C908.499 487.6 916.399 450.1 916.199 413.1C915.999 350.3 891.799 288.9 849.799 244.7C813.899 206.9 766.099 186.1 715.099 186.1C664.099 186.1 616.199 206.9 580.399 244.7L513.599 315.1L446.799 244.7C410.899 206.9 363.099 186.1 312.099 186.1C261.099 186.1 213.199 206.9 177.399 244.7C151.899 271.5 132.599 305.1 121.599 341.8C108.899 384.1 107.599 428.1 117.699 472.8L103.099 476.1C92.3994 428.9 93.7994 382.3 107.299 337.5C118.999 298.5 139.499 262.9 166.599 234.4C205.299 193.6 256.999 171.2 312.199 171.2C367.399 171.2 419.099 193.7 457.799 234.4L513.699 293.3L569.599 234.4C608.299 193.6 659.999 171.2 715.199 171.2C770.399 171.2 822.099 193.7 860.799 234.4C905.299 281.3 930.999 346.4 931.299 413C931.399 452.1 923.099 491.6 906.599 530.3C888.199 573.2 859.699 615.2 821.699 655.2C744.299 736.7 665.799 799.1 613.699 837C557.099 878.2 518.199 900.4 517.799 900.6L513.699 903.1Z" fill="#999999"/>
<path d="M454.1 769.3L357.5 391.9L302.8 508.4H76.5996V500.4H297.7L359.8 368.3L452.4 730.3L491.3 493H546.2L576.6 569.8L621.1 384.2L680.7 631.1L716.1 489.8H951.1V497.8H722.3L680.5 664.6L621.1 418.4L578.5 596.3L540.8 501H498L454.1 769.3Z" fill="#CE0202"/>
</g>
<defs>
<clipPath id="clip0_54770_697">
<rect width="1024" height="1024" rx="120" fill="white"/>
</clipPath>
</defs>
</svg>
