<svg width="1024" height="1024" viewBox="0 0 1024 1024" fill="none" xmlns="http://www.w3.org/2000/svg">
<rect width="1024" height="1024" rx="120" fill="#FFE2FE"/>
<g clip-path="url(#clip0_54732_13310)">
<path d="M749.108 580.073C830.705 501.089 807.382 396.07 765.928 349.958C730.91 311.005 689.423 290.417 645.956 290.417C598.489 290.417 555.6 318.609 529.776 365.442C504.008 318.608 461.442 290.417 414.451 290.417C370.963 290.417 330.62 310.416 294.536 349.88C252.137 396.248 228.169 501.5 311.378 580.172C349.252 615.979 520.416 796.013 522.138 797.825C524.239 800.027 527.14 801.271 530.186 801.283H530.198C533.233 801.283 536.134 800.037 538.224 797.847C539.97 796.036 711.611 616.391 749.108 580.073ZM732.032 395.38C729.908 397.293 727.24 398.227 724.595 398.227C721.559 398.227 718.525 396.993 716.323 394.547C694.001 369.701 670.323 357.117 645.955 357.117C639.807 357.117 634.839 352.136 634.839 346C634.839 339.853 639.807 334.884 645.955 334.884C676.892 334.884 706.14 349.958 732.866 379.684C736.968 384.252 736.59 391.278 732.032 395.38Z" fill="#FF2E2E"/>
<path d="M311.4 245.95C317.548 245.95 322.516 240.97 322.516 234.834C322.516 228.698 317.548 223.718 311.4 223.718C239.087 223.716 178 284.992 178 357.528C178 363.664 182.969 368.644 189.116 368.644C195.264 368.644 200.232 363.664 200.232 357.528C200.234 298.087 252.182 245.95 311.4 245.95Z" fill="#FF2E2E"/>
<path d="M308.11 290.417C314.257 290.417 319.226 285.436 319.226 279.3C319.226 273.164 314.257 268.184 308.11 268.184C263.288 268.184 222.467 310.761 222.467 357.528C222.467 363.664 227.435 368.644 233.583 368.644C239.731 368.644 244.699 363.664 244.699 357.528C244.701 323.033 275.515 290.417 308.11 290.417Z" fill="#FF2E2E"/>
<path d="M833.883 635.034C827.736 635.034 822.767 640.015 822.767 646.15C822.767 705.369 770.819 757.317 711.601 757.317C705.453 757.317 700.484 762.297 700.484 768.433C700.484 774.569 705.453 779.549 711.601 779.549C783.914 779.549 845.001 718.463 845.001 646.149C844.999 640.015 840.031 635.034 833.883 635.034Z" fill="#FF2E2E"/>
<path d="M778.301 646.151C778.301 679.812 745.262 712.851 711.601 712.851C705.453 712.851 700.484 717.831 700.484 723.967C700.484 730.103 705.453 735.083 711.601 735.083C757.312 735.083 800.534 691.861 800.534 646.149C800.534 640.014 795.566 635.033 789.418 635.033C783.271 635.033 778.301 640.015 778.301 646.151Z" fill="#FF2E2E"/>
<path fill-rule="evenodd" clip-rule="evenodd" d="M469.479 393.947C478.376 394.18 485.803 398.472 487.267 404.226L548.735 645.851L601.006 525.993C603.27 520.802 610.431 517.183 618.668 517.066C626.906 516.948 634.3 520.36 636.906 525.482L670.209 590.938H731.837C742.217 590.938 750.631 596.45 750.631 603.25C750.631 610.05 742.217 615.563 731.837 615.563H656.664C648.574 615.563 641.393 612.171 638.835 607.144L620.458 571.026L561.973 705.133C559.559 710.668 551.613 714.368 542.84 714.043C534.067 713.717 526.81 709.453 525.365 703.774L465.046 466.667L411.788 606.236C409.696 611.717 402.179 615.563 393.555 615.563H318.381C308.002 615.563 299.588 610.05 299.588 603.25C299.588 596.45 308.002 590.938 318.381 590.938H378.882L450.497 403.264C452.656 397.604 460.582 393.715 469.479 393.947Z" fill="#FFE2FE"/>
</g>
<defs>
<clipPath id="clip0_54732_13310">
<rect width="667" height="667" fill="white" transform="translate(178 179)"/>
</clipPath>
</defs>
</svg>
