<svg width="1024" height="1024" viewBox="0 0 1024 1024" fill="none" xmlns="http://www.w3.org/2000/svg">
<rect width="1024" height="1024" rx="120" fill="black"/>
<g clip-path="url(#clip0_54771_1589)">
<path d="M894.242 539.946C894.732 539.6 895.041 539.052 895.082 538.453C895.679 529.711 896 520.894 896 512C896 299.923 724.078 128 512 128C299.923 128 128 299.923 128 512C128 688.322 246.848 836.865 408.799 881.948C409.376 882.109 409.997 882.001 410.487 881.655L894.242 539.946Z" fill="#C30B15"/>
<path d="M894.95 540.313C894.993 539.735 894.781 539.164 894.371 538.754L602.346 246.729C601.411 245.794 599.842 246.008 599.191 247.159L309.677 758.802C309.269 759.523 309.348 760.42 309.874 761.059L409.313 881.714C409.575 882.031 409.928 882.26 410.325 882.369C442.711 891.241 476.798 896 512 896C714.554 896 880.456 739.168 894.95 540.313Z" fill="#85080E"/>
<path d="M543.001 628.521C544.275 628.7 545.383 627.646 545.27 626.365L511.727 246.694C511.636 245.661 510.771 244.87 509.735 244.87H323.644C314.255 244.87 306.644 252.481 306.644 261.87V593.738C306.644 594.736 307.379 595.581 308.367 595.719L543.001 628.521Z" fill="white"/>
<path d="M708.962 596.844C713.801 596.056 717.356 591.877 717.356 586.974V368.509C717.356 364.42 714.866 360.743 711.07 359.225L637.857 329.939C635.316 328.923 633.303 326.909 632.286 324.368L603.001 251.156C601.482 247.359 597.805 244.87 593.716 244.87H511.566L512.084 617.128C512.093 623.286 517.612 627.973 523.69 626.984L708.962 596.844Z" fill="#E8E6E6"/>
<path d="M611.486 361.739C605.411 361.739 600.486 356.814 600.486 350.739V249.698C600.486 247.916 602.641 247.024 603.901 248.284L713.942 358.325C715.202 359.585 714.309 361.739 712.527 361.739H611.486Z" fill="white"/>
<path d="M715.357 595.479H308.644C307.539 595.479 306.644 596.374 306.644 597.479V757.131C306.644 769.281 316.493 779.131 328.644 779.131H695.357C707.507 779.131 717.357 769.281 717.357 757.131V597.479C717.357 596.374 716.462 595.479 715.357 595.479Z" fill="#FC0F1A"/>
<path d="M435.307 647.58C455.627 647.58 467.318 657.569 467.318 675.278C467.318 693.896 455.626 704.679 435.307 704.679H422.89C421.786 704.679 420.89 705.575 420.89 706.679V725.043C420.89 726.147 419.995 727.043 418.89 727.043H402.684C401.579 727.043 400.684 726.147 400.684 725.043V649.58C400.684 648.476 401.579 647.58 402.684 647.58H435.307ZM420.89 686.787C420.89 687.891 421.786 688.787 422.89 688.787H434.285C443.141 688.787 448.247 684.359 448.247 675.959C448.247 667.671 443.138 663.473 434.285 663.473H422.89C421.786 663.473 420.89 664.368 420.89 665.473V686.787Z" fill="white"/>
<path d="M514.892 647.58C539.866 647.58 557.12 663.699 557.12 687.311C557.12 710.81 539.638 727.043 514.096 727.043H482.721C481.616 727.043 480.721 726.147 480.721 725.043V649.58C480.721 648.476 481.616 647.58 482.721 647.58H514.892ZM500.929 710.922H515.345C527.719 710.922 536.572 701.387 536.572 687.425C536.572 673.349 527.264 663.699 514.436 663.699H502.927C501.823 663.699 500.927 664.595 500.927 665.699V710.921C500.927 710.921 500.928 710.922 500.929 710.922Z" fill="white"/>
<path d="M590.844 663.473V679.863C590.844 680.968 591.74 681.863 592.844 681.863H624.489C625.593 681.863 626.489 682.758 626.489 683.863V695.757C626.489 696.862 625.593 697.757 624.489 697.757H592.844C591.74 697.757 590.844 698.652 590.844 699.757V725.045C590.844 726.149 589.949 727.045 588.844 727.045H572.638C571.533 727.045 570.638 726.149 570.638 725.045V649.582C570.638 648.477 571.533 647.582 572.638 647.582H627.553C628.658 647.582 629.553 648.477 629.553 649.582V661.475C629.553 662.579 628.658 663.475 627.553 663.475H590.846C590.845 663.475 590.844 663.474 590.844 663.473Z" fill="white"/>
</g>
<defs>
<clipPath id="clip0_54771_1589">
<rect width="768" height="768" fill="white" transform="translate(128 128)"/>
</clipPath>
</defs>
</svg>
