<svg width="100" height="100" viewBox="0 0 100 100" fill="none" xmlns="http://www.w3.org/2000/svg">
<g clip-path="url(#clip0_61_1191)">
<rect width="100" height="100" rx="22.7889" fill="url(#paint0_linear_61_1191)"/>
<g clip-path="url(#clip1_61_1191)">
<path d="M21.9799 59.3317V78.0258H24.6534V59.3317H21.9799Z" fill="#297EF3"/>
<path d="M21.9799 43.3433V56.6875H24.6534V43.3433H21.9799Z" fill="#297EF3"/>
<path d="M21.9799 21.9743V40.6683H24.6534V21.9743H21.9799Z" fill="#297EF3"/>
<path d="M24.6535 75.3508V78.0258H27.3269V75.3508H24.6535Z" fill="#297EF3"/>
<path d="M24.6535 59.3624V62.0374H27.3269V59.3624H24.6535Z" fill="#297EF3"/>
<path d="M24.6535 54.0125V56.6875H27.3269V54.0125H24.6535Z" fill="#297EF3"/>
<path d="M24.6535 48.6626V51.3375H27.3269V48.6626H24.6535Z" fill="#297EF3"/>
<path d="M24.6535 43.3434V46.0184H27.3269V43.3434H24.6535Z" fill="#297EF3"/>
<path d="M24.6535 37.9934V40.6683H27.3269V37.9934H24.6535Z" fill="#297EF3"/>
<path d="M24.6535 21.9744V24.6494H27.3269V21.9744H24.6535Z" fill="#297EF3"/>
<path d="M27.327 75.3508V78.0258H30.0004V75.3508H27.327Z" fill="#297EF3"/>
<path d="M27.327 64.7124V72.7065H30.0004V64.7124H27.327Z" fill="#297EF3"/>
<path d="M27.327 59.3624V62.0374H30.0004V59.3624H27.327Z" fill="#297EF3"/>
<path d="M27.327 54.0125V56.6875H30.0004V54.0125H27.327Z" fill="#297EF3"/>
<path d="M27.327 37.9934V40.6683H30.0004V37.9934H27.327Z" fill="#297EF3"/>
<path d="M27.327 27.355V35.3491H30.0004V27.355H27.327Z" fill="#297EF3"/>
<path d="M27.327 21.9744V24.6494H30.0004V21.9744H27.327Z" fill="#297EF3"/>
<path d="M29.9696 75.3508V78.0258H32.6431V75.3508H29.9696Z" fill="#297EF3"/>
<path d="M29.9696 64.7124V72.7065H32.6431V64.7124H29.9696Z" fill="#297EF3"/>
<path d="M29.9696 59.3624V62.0374H32.6431V59.3624H29.9696Z" fill="#297EF3"/>
<path d="M29.9696 46.0184V56.6875H32.6431V46.0184H29.9696Z" fill="#297EF3"/>
<path d="M29.9696 37.9934V40.6683H32.6431V37.9934H29.9696Z" fill="#297EF3"/>
<path d="M29.9696 27.355V35.3491H32.6431V27.355H29.9696Z" fill="#297EF3"/>
<path d="M29.9696 21.9744V24.6494H32.6431V21.9744H29.9696Z" fill="#297EF3"/>
<path d="M32.6431 75.3508V78.0258H35.3166V75.3508H32.6431Z" fill="#297EF3"/>
<path d="M32.6431 64.7124V72.7065H35.3166V64.7124H32.6431Z" fill="#297EF3"/>
<path d="M32.6431 59.3624V62.0374H35.3166V59.3624H32.6431Z" fill="#297EF3"/>
<path d="M32.6431 43.3434V46.0184H35.3166V43.3434H32.6431Z" fill="#297EF3"/>
<path d="M32.6431 37.9934V40.6683H35.3166V37.9934H32.6431Z" fill="#297EF3"/>
<path d="M32.6431 27.355V35.3491H35.3166V27.355H32.6431Z" fill="#297EF3"/>
<path d="M32.6431 21.9744V24.6494H35.3166V21.9744H32.6431Z" fill="#297EF3"/>
<path d="M35.3166 75.3508V78.0258H37.99V75.3508H35.3166Z" fill="#297EF3"/>
<path d="M35.3166 59.3624V62.0374H37.99V59.3624H35.3166Z" fill="#297EF3"/>
<path d="M35.3166 51.3375V56.6875H37.99V51.3375H35.3166Z" fill="#297EF3"/>
<path d="M35.3166 46.0183V48.6932H37.99V46.0183H35.3166Z" fill="#297EF3"/>
<path d="M35.3166 37.9934V40.6683H37.99V37.9934H35.3166Z" fill="#297EF3"/>
<path d="M35.3166 21.9744V24.6494H37.99V21.9744H35.3166Z" fill="#297EF3"/>
<path d="M37.9901 59.3317V78.0258H40.6636V59.3317H37.9901Z" fill="#297EF3"/>
<path d="M37.9901 54.0125V56.6875H40.6636V54.0125H37.9901Z" fill="#297EF3"/>
<path d="M37.9901 48.6626V51.3375H40.6636V48.6626H37.9901Z" fill="#297EF3"/>
<path d="M37.9901 43.3434V46.0184H40.6636V43.3434H37.9901Z" fill="#297EF3"/>
<path d="M37.9901 21.9743V40.6683H40.6636V21.9743H37.9901Z" fill="#297EF3"/>
<path d="M40.6635 43.3432V54.0125H43.337V43.3432H40.6635Z" fill="#297EF3"/>
<path d="M43.3062 72.6758V78.0258H45.9797V72.6758H43.3062Z" fill="#297EF3"/>
<path d="M43.3062 59.3624V67.3566H45.9797V59.3624H43.3062Z" fill="#297EF3"/>
<path d="M43.3062 51.3374V54.0125H45.9797V51.3374H43.3062Z" fill="#297EF3"/>
<path d="M43.3062 46.0183V48.6932H45.9797V46.0183H43.3062Z" fill="#297EF3"/>
<path d="M43.3062 35.3183V37.9933H45.9797V35.3183H43.3062Z" fill="#297EF3"/>
<path d="M43.3062 22.0049V32.6741H45.9797V22.0049H43.3062Z" fill="#297EF3"/>
<path d="M45.9797 62.0373V70.0315H48.6532V62.0373H45.9797Z" fill="#297EF3"/>
<path d="M45.9797 54.0125V59.3624H48.6532V54.0125H45.9797Z" fill="#297EF3"/>
<path d="M45.9797 43.3432V48.6932H48.6532V43.3432H45.9797Z" fill="#297EF3"/>
<path d="M45.9797 35.3183V37.9933H48.6532V35.3183H45.9797Z" fill="#297EF3"/>
<path d="M45.9797 22.0049V32.6741H48.6532V22.0049H45.9797Z" fill="#297EF3"/>
</g>
<g clip-path="url(#clip2_61_1191)">
<path d="M22 77.2191V78H78V77.2191H22Z" fill="white"/>
<path d="M22 76.4555V76.8373H78V76.4555H22Z" fill="white"/>
<path d="M22 75.2929V75.6747H78V75.2929H22Z" fill="white"/>
<path d="M22 73.3666V73.7484H78V73.3666H22Z" fill="white"/>
<path d="M22 72.6031V72.9849H78V72.6031H22Z" fill="white"/>
<path d="M22 70.6422V71.4231H78V70.6422H22Z" fill="white"/>
<path d="M22 69.1149V69.4967H78V69.1149H22Z" fill="white"/>
<path d="M22 67.5706V67.9524H78V67.5706H22Z" fill="white"/>
<path d="M22 66.4077V67.1886H78V66.4077H22Z" fill="white"/>
<path d="M22 64.8633V65.2451H78V64.8633H22Z" fill="white"/>
<path d="M22 63.3188V63.7006H78V63.3188H22Z" fill="white"/>
<path d="M22 61.3753V62.1562H78V61.3753H22Z" fill="white"/>
<path d="M22 60.23V61.0109H78V60.23H22Z" fill="white"/>
<path d="M22 59.0672V59.8481H78V59.0672H22Z" fill="white"/>
<path d="M22 57.5227V58.3036H78V57.5227H22Z" fill="white"/>
<path d="M22 56.3775V56.7593H78V56.3775H22Z" fill="white"/>
<path d="M22 54.8157V55.9784H78V54.8157H22Z" fill="white"/>
<path d="M22 52.8893V54.4338H78V52.8893H22Z" fill="white"/>
<path d="M22 51.7267V52.5076H78V51.7267H22Z" fill="white"/>
<path d="M22 50.1822V50.9631H78V50.1822H22Z" fill="white"/>
<path d="M22 49.0195V49.8004H78V49.0195H22Z" fill="white"/>
<path d="M22 47.0933V48.256H78V47.0933H22Z" fill="white"/>
<path d="M22 45.9306V46.7115H78V45.9306H22Z" fill="white"/>
<path d="M22 44.4035V45.5662H78V44.4035H22Z" fill="white"/>
<path d="M22 43.64V44.0217H78V43.64H22Z" fill="white"/>
<path d="M22 42.0782V43.2408H78V42.0782H22Z" fill="white"/>
<path d="M22 40.9154V41.6963H78V40.9154H22Z" fill="white"/>
<path d="M22 39.3882V39.77H78V39.3882H22Z" fill="white"/>
<path d="M22 37.4447V37.8265H78V37.4447H22Z" fill="white"/>
<path d="M22 36.282V37.0629H78V36.282H22Z" fill="white"/>
<path d="M22 34.7375V35.5184H78V34.7375H22Z" fill="white"/>
<path d="M22 33.5749V34.3558H78V33.5749H22Z" fill="white"/>
<path d="M22 31.6485V33.193H78V31.6485L22 31.6485Z" fill="white"/>
<path d="M22 30.8851V31.2668L78 31.2668V30.8851L22 30.8851Z" fill="white"/>
<path d="M22 28.9414V29.7223L78 29.7223V28.9414L22 28.9414Z" fill="white"/>
<path d="M22 27.3971V28.5598L78 28.5598V27.3971L22 27.3971Z" fill="white"/>
<path d="M22 26.2343V27.0153L78 27.0153V26.2343L22 26.2343Z" fill="white"/>
<path d="M22 23.9262V25.0889L78 25.0889V23.9262L22 23.9262Z" fill="white"/>
<path d="M22 23.1627V23.5444L78 23.5444V23.1627L22 23.1627Z" fill="white"/>
<path d="M22 22V22.7809L78 22.7809V22L22 22Z" fill="white"/>
</g>
<g style="mix-blend-mode:plus-darker">
<path d="M38 -7.99999L38 116.487H61.0371L61.0371 -7.99999H38Z" fill="url(#paint1_linear_61_1191)"/>
</g>
<g style="mix-blend-mode:screen">
<path d="M38 -7.99999L38 116.487H61.0371L61.0371 -7.99999H38Z" fill="url(#paint2_linear_61_1191)"/>
</g>
<g style="mix-blend-mode:plus-lighter">
<path d="M37 -13L37 111.487H60.0371L60.0371 -13H37Z" fill="url(#paint3_linear_61_1191)"/>
</g>
</g>
<defs>
<linearGradient id="paint0_linear_61_1191" x1="100" y1="50" x2="-1.43345e-06" y2="50" gradientUnits="userSpaceOnUse">
<stop stop-color="#1D77F2"/>
<stop offset="1" stop-color="white"/>
</linearGradient>
<linearGradient id="paint1_linear_61_1191" x1="61.0531" y1="54.2479" x2="38.0051" y2="54.2479" gradientUnits="userSpaceOnUse">
<stop stop-color="white" stop-opacity="0"/>
<stop offset="0.5045" stop-color="#1C7EF2"/>
<stop offset="1" stop-color="white" stop-opacity="0"/>
</linearGradient>
<linearGradient id="paint2_linear_61_1191" x1="61.0531" y1="54.2479" x2="38.0051" y2="54.2479" gradientUnits="userSpaceOnUse">
<stop stop-opacity="0"/>
<stop offset="0.575" stop-color="#0047FF"/>
<stop offset="1" stop-opacity="0"/>
</linearGradient>
<linearGradient id="paint3_linear_61_1191" x1="60.0531" y1="49.2479" x2="37.0051" y2="49.2479" gradientUnits="userSpaceOnUse">
<stop offset="0.4" stop-opacity="0"/>
<stop offset="0.4133" stop-color="#040404"/>
<stop offset="0.426" stop-color="#0F0F0F"/>
<stop offset="0.4384" stop-color="#222222"/>
<stop offset="0.4506" stop-color="#3D3D3D"/>
<stop offset="0.4627" stop-color="#606060"/>
<stop offset="0.4747" stop-color="#8B8B8B"/>
<stop offset="0.4867" stop-color="#BDBDBD"/>
<stop offset="0.4983" stop-color="#F6F6F6"/>
<stop offset="0.5" stop-color="white"/>
<stop offset="0.5109" stop-color="#D6D6D6"/>
<stop offset="0.5292" stop-color="#999999"/>
<stop offset="0.5467" stop-color="#656565"/>
<stop offset="0.563" stop-color="#3D3D3D"/>
<stop offset="0.5778" stop-color="#202020"/>
<stop offset="0.5906" stop-color="#0E0E0E"/>
<stop offset="0.6" stop-color="#080808" stop-opacity="0"/>
</linearGradient>
<clipPath id="clip0_61_1191">
<rect width="100" height="100" rx="22.7889" fill="white"/>
</clipPath>
<clipPath id="clip1_61_1191">
<rect width="56" height="26" fill="white" transform="matrix(0 -1 1 0 22 78)"/>
</clipPath>
<clipPath id="clip2_61_1191">
<rect width="56" height="29" fill="white" transform="matrix(0 -1 1 0 49 78)"/>
</clipPath>
</defs>
</svg>
