<svg width="22" height="16" viewBox="0 0 22 16" fill="none" xmlns="http://www.w3.org/2000/svg">
<path d="M2.88281 15.416C0.993164 15.416 0 14.4404 0 12.5596V2.84766C0 0.975586 0.984375 0 2.66309 0H18.6328C20.5225 0 21.5156 0.975586 21.5156 2.84766V12.5596C21.5156 14.4404 20.5312 15.416 18.8525 15.416H2.88281ZM9.9668 8.21777C10.2217 8.44629 10.4854 8.56055 10.7578 8.56055C11.0303 8.56055 11.2939 8.44629 11.5488 8.21777L18.8613 1.62598C18.791 1.61719 18.7119 1.61719 18.6328 1.61719H2.88281C2.80371 1.61719 2.72461 1.61719 2.6543 1.62598L9.9668 8.21777ZM19.8984 2.90039C19.8984 2.83008 19.8984 2.75977 19.8896 2.69824L14.748 7.33008L19.8984 12.4805V2.90039ZM1.61719 2.8916V12.4805L6.76758 7.33008L1.62598 2.69824C1.61719 2.75977 1.61719 2.82129 1.61719 2.8916ZM2.88281 13.7988H18.6328C18.791 13.7988 18.9316 13.7812 19.0635 13.7549L13.6406 8.32324L12.4453 9.4043C11.9092 9.8877 11.3643 10.1074 10.7578 10.1074C10.1514 10.1074 9.60645 9.8877 9.07031 9.4043L7.875 8.32324L2.45215 13.7549C2.58398 13.7812 2.72461 13.7988 2.88281 13.7988Z" fill="white"/>
</svg>
